<?xml version="1.0" standalone="no"?>
<!DOCTYPE svg PUBLIC "-//W3C//DTD SVG 1.1//EN" "http://www.w3.org/Graphics/SVG/1.1/DTD/svg11.dtd" >
<svg xmlns="http://www.w3.org/2000/svg">
<metadata>
Created by FontForge 20120731 at Tue Jan 24 15:39:08 2017
 By admin
</metadata>
<defs>
<font id="iconfont" horiz-adv-x="1024" >
  <font-face 
    font-family="iconfont"
    font-weight="500"
    font-stretch="normal"
    units-per-em="1024"
    panose-1="2 0 6 3 0 0 0 0 0 0"
    ascent="896"
    descent="-128"
    x-height="792"
    bbox="-0.764706 -128.5 1486 896.5"
    underline-thickness="0"
    underline-position="0"
    unicode-range="U+0078-E88D"
  />
<missing-glyph 
 />
    <glyph glyph-name=".notdef" 
 />
    <glyph glyph-name=".notdef" 
 />
    <glyph glyph-name=".null" horiz-adv-x="0" 
 />
    <glyph glyph-name="nonmarkingreturn" horiz-adv-x="341" 
 />
    <glyph glyph-name="x" unicode="x" horiz-adv-x="1001" 
d="M281 543q-27 -1 -53 -1h-83q-18 0 -36.5 -6t-32.5 -18.5t-23 -32t-9 -45.5v-76h912v41q0 16 -0.5 30t-0.5 18q0 13 -5 29t-17 29.5t-31.5 22.5t-49.5 9h-133v-97h-438v97zM955 310v-52q0 -23 0.5 -52t0.5 -58t-10.5 -47.5t-26 -30t-33 -16t-31.5 -4.5q-14 -1 -29.5 -0.5
t-29.5 0.5h-32l-45 128h-439l-44 -128h-29h-34q-20 0 -45 1q-25 0 -41 9.5t-25.5 23t-13.5 29.5t-4 30v167h911zM163 247q-12 0 -21 -8.5t-9 -21.5t9 -21.5t21 -8.5q13 0 22 8.5t9 21.5t-9 21.5t-22 8.5zM316 123q-8 -26 -14 -48q-5 -19 -10.5 -37t-7.5 -25t-3 -15t1 -14.5
t9.5 -10.5t21.5 -4h37h67h81h80h64h36q23 0 34 12t2 38q-5 13 -9.5 30.5t-9.5 34.5q-5 19 -11 39h-368zM336 498v228q0 11 2.5 23t10 21.5t20.5 15.5t34 6h188q31 0 51.5 -14.5t20.5 -52.5v-227h-327z" />
    <glyph glyph-name="biaoji" unicode="&#xe601;" 
d="M746 609l173 -172q9 -9 9 -22t-9 -22t-23 -9v0h-736v-416q0 -13 -9.5 -22.5t-22.5 -9.5t-22.5 9.5t-9.5 22.5v832q0 13 9.5 22.5t22.5 9.5h768v0q13 -1 21 -9q9 -9 9 -21.5t-9 -21.5zM160 768v-320h660l-137 138q-1 0 -1.5 0.5l-0.5 0.5q-9 9 -9 22t9 22q1 0 2 1l1 1
l135 135h-659z" />
    <glyph glyph-name="chakan" unicode="&#xe602;" 
d="M956 271q-83 -112 -198.5 -175.5t-245.5 -63.5t-245.5 63.5t-198.5 175.5q-36 49 -36 113t36 113q83 112 198.5 175.5t245.5 63.5t245.5 -63.5t198.5 -175.5q36 -49 36 -113t-36 -113zM908 444q-76 108 -179.5 168t-217.5 60t-218 -60t-179 -168q-18 -26 -18 -60t18 -60
q75 -108 179 -168t218 -60t217.5 60t179.5 168q18 26 18 60t-18 60zM512.5 160q-92.5 0 -158.5 65.5t-66 158.5t66 158.5t158.5 65.5t158 -65.5t65.5 -158.5t-65.5 -158.5t-158 -65.5zM512.5 544q-66.5 0 -113.5 -47t-47 -113t47 -113t113.5 -47t113 47t46.5 113t-46.5 113
t-113 47z" />
    <glyph glyph-name="daima" unicode="&#xe604;" 
d="M985 363l-195 -194q-9 -9 -21.5 -9t-21.5 9t-9 22t9 22l173 172l-173 172q-9 9 -9 22t9 22t21.5 9t21.5 -9l195 -194q9 -9 9 -22t-9 -22zM348 -16q-7 -11 -19.5 -14.5t-24 3t-15 19.5t2.5 25l384 767q7 11 20 14.5t24.5 -3t14.5 -19.5t-3 -25zM277 169q-9 -9 -21.5 -9
t-21.5 9l-195 194q-9 9 -9 22t9 22l195 194q9 9 21.5 9t21.5 -9t9 -22t-9 -22l-172 -172l172 -172q9 -9 9 -22t-9 -22z" />
    <glyph glyph-name="guanlian" unicode="&#xe607;" 
d="M928 0h-512q-27 0 -45.5 18.5t-18.5 45.5v384q0 27 18.5 45.5t45.5 18.5h96q13 0 22.5 -9.5t9.5 -22.5t-9.5 -22.5t-22.5 -9.5h-96v-384h512v384h-160q-13 0 -22.5 9.5t-9.5 22.5t9.5 22.5t22.5 9.5h160q27 0 45.5 -18.5t18.5 -45.5v-384q0 -27 -18.5 -45.5t-45.5 -18.5z
M608 256h-96q-13 0 -22.5 9.5t-9.5 22.5t9.5 22.5t22.5 9.5h96v384h-512v-384h160q13 0 22.5 -9.5t9.5 -22.5t-9.5 -22.5t-22.5 -9.5h-160q-27 0 -45.5 18.5t-18.5 45.5v384q0 27 18.5 45.5t45.5 18.5h512q27 0 45.5 -18.5t18.5 -45.5v-384q0 -27 -18.5 -45.5t-45.5 -18.5z
" />
    <glyph glyph-name="shaixuan" unicode="&#xe608;" 
d="M918 774l-246 -246v-305v-1q0 -14 -10 -24l-253 -253q-10 -10 -23.5 -10t-23.5 10q-9 9 -10 22v0v1v1v558l-247 247q-9 10 -9 23.5t9 23.5q10 10 23 10h768h1t3.5 -0.5l5 -1t6 -2.5t6.5 -6q10 -10 10 -23.5t-10 -23.5zM416 46l192 192v273h-192v-465zM207 767l192 -192
h226l192 192h-610z" />
    <glyph glyph-name="shanchu" unicode="&#xe609;" 
d="M864 640h-704q-13 0 -22.5 9.5t-9.5 22.5t9.5 22.5t22.5 9.5h704q13 0 22.5 -9.5t9.5 -22.5t-9.5 -22.5t-22.5 -9.5zM608 768h-192q-13 0 -22.5 9.5t-9.5 22.5t9.5 22.5t22.5 9.5h192q13 0 22.5 -9.5t9.5 -22.5t-9.5 -22.5t-22.5 -9.5zM224 576q13 0 22.5 -9.5t9.5 -22.5
v-480q0 -27 18.5 -45.5t45.5 -18.5h64v544q0 13 9.5 22.5t22.5 9.5t22.5 -9.5t9.5 -22.5v-544h128v544q0 13 9.5 22.5t22.5 9.5t22.5 -9.5t9.5 -22.5v-544h64q27 0 45.5 18.5t18.5 45.5v480q0 13 9.5 22.5t22.5 9.5t22.5 -9.5t9.5 -22.5v-480q0 -53 -37.5 -90.5t-90.5 -37.5
h-384q-53 0 -90.5 37.5t-37.5 90.5v480q0 13 9.5 22.5t22.5 9.5z" />
    <glyph glyph-name="shenhe" unicode="&#xe60a;" 
d="M952 301l-388 -388q-9 -9 -22 -9t-22 9q-3 3 -5 8l-187 187q-9 9 -9 21.5t9 21.5t21.5 9t21.5 -9l172 -172l365 366q9 9 22 9t22 -9t9 -22t-9 -22zM617 225q-13 -4 -25.5 1t-17.5 18l-75 172h-296l-75 -172q-5 -13 -17.5 -18t-25.5 -1t-19 16t-1 24l253 579q8 21 33 20
q25 1 33 -20l253 -579q5 -12 -1 -24t-19 -16zM351 753l-120 -273h240z" />
    <glyph glyph-name="tubiao" unicode="&#xe60d;" 
d="M896 -32h-128q-27 0 -45.5 18.5t-18.5 45.5v448q0 27 18.5 45.5t45.5 18.5h128q27 0 45.5 -18.5t18.5 -45.5v-448q0 -27 -18.5 -45.5t-45.5 -18.5zM896 480h-128v-448h128v448zM576 -32h-128q-27 0 -45.5 18.5t-18.5 45.5v704q0 27 18.5 45.5t45.5 18.5h128
q27 0 45.5 -18.5t18.5 -45.5v-704q0 -27 -18.5 -45.5t-45.5 -18.5zM576 736h-128v-704h128v704zM256 -32h-128q-27 0 -45.5 18.5t-18.5 45.5v320q0 27 18.5 45.5t45.5 18.5h128q27 0 45.5 -18.5t18.5 -45.5v-320q0 -27 -18.5 -45.5t-45.5 -18.5zM256 352h-128v-320h128v320z
" />
    <glyph glyph-name="fu" unicode="&#xe60e;" 
d="M800 -32h-576q-53 0 -90.5 37.5t-37.5 90.5v576q0 53 37.5 90.5t90.5 37.5h576q53 0 90.5 -37.5t37.5 -90.5v-576q0 -53 -37.5 -90.5t-90.5 -37.5zM720 522q12 -13 40 -49q30 -36 41 -50q20 -22 43 -4q21 22 3 47q-133 166 -237 262q-23 19 -44 -3q-17 -25 3 -47
q67 -65 102 -106q-35 -174 -160 -296q-127 137 -156 281q52 71 75 121q15 32 -9 50q-29 16 -43 -12q-61 -137 -203 -240q-23 -22 -6 -50q18 -19 47 0q43 28 87 75q75 -178 159 -272q-125 -100 -284 -131q-23 -9 -17 -40q8 -28 31 -25q148 31 328 153q107 -88 310 -153
q29 -7 35 25q6 34 -23 43q-142 35 -276 128q107 116 154 293z" />
    <glyph glyph-name="zi" unicode="&#xe60f;" 
d="M800 -32h-576q-53 0 -90.5 37.5t-37.5 90.5v576q0 53 37.5 90.5t90.5 37.5h576q53 0 90.5 -37.5t37.5 -90.5v-576q0 -53 -37.5 -90.5t-90.5 -37.5zM834 415l-290 1q-7 31 -11 39q11 9 66 37q88 44 161 84q35 23 27 61q-15 35 -59 35h-461q-27 0 -32 -32q2 -29 29 -32h385
q26 0 29 -6q3 -8 -21 -17q-229 -102 -199 -125q0 8 9 -11l13 -33l-290 -1q-26 -3 -29 -29q3 -29 29 -32h353q19 -84 13 -157t-37 -92q-50 -29 -182 3q-23 6 -35 -14q-9 -29 15 -38q179 -52 252 9q38 25 48 108.5t-10 180.5h227q26 3 29 32q-3 26 -29 29zM531 451q-1 1 0 2
v-0.5v-1.5z" />
    <glyph glyph-name="jingshi" unicode="&#xe610;" 
d="M512 -96q-98 0 -186.5 38t-153 102.5t-102.5 153t-38 186.5t38 186.5t102.5 153t153 102.5t186.5 38t186.5 -38t153 -102.5t102.5 -153t38 -186.5t-38 -186.5t-102.5 -153t-153 -102.5t-186.5 -38zM544 640q0 13 -9.5 22.5t-22.5 9.5t-22.5 -9.5t-9.5 -22.5v-320
q0 -13 9.5 -22.5t22.5 -9.5t22.5 9.5t9.5 22.5v320zM544 192q0 13 -9.5 22.5t-22.5 9.5t-22.5 -9.5t-9.5 -22.5v-64q0 -13 9.5 -22.5t22.5 -9.5t22.5 9.5t9.5 22.5v64z" />
    <glyph glyph-name="appdashboard" unicode="&#xe696;" horiz-adv-x="1025" 
d="M951 819q-74 76 -419 76h-7q-36 1 -58 1q-260 0 -353 -52q-33 -18 -56 -60.5t-34 -93.5t-18 -109t-6 -107t1 -87q0 -39 -0.5 -88.5t6 -108.5t17.5 -111t34 -94.5t56 -60.5q93 -52 353 -52q34 0 58 1h7q345 0 419 76q24 25 40 80.5t22.5 125.5t8.5 123t2 106
q0 52 -2 105.5t-8.5 123.5t-22.5 125.5t-40 80.5zM913 -14q-10 -10 -30 -19v352q0 15 -10.5 25.5t-25.5 10.5h-70q-15 0 -25 -10.5t-10 -25.5v-383q-26 -3 -59 -5v177q0 14 -10.5 24.5t-25.5 10.5h-70q-15 0 -25 -10.5t-10 -24.5v-183h-10h-8h-41v271q0 14 -10.5 24.5
t-25.5 10.5h-70q-15 0 -25 -10.5t-10 -24.5v-267q-29 1 -59 5v438q0 15 -10.5 25t-25.5 10h-70q-15 0 -25 -10t-10 -25v-403h-1.5t-1.5 1q-27 15 -45.5 64t-26.5 101t-11 117t-3 91t1 44q-4 100 8 210q14 4 33 8t54 6.5t81.5 -6t94.5 -28.5q75 -30 140.5 -86t92.5 -128
l31 -83l20 86q34 149 133 195v-63q0 -10 7 -17q7 -8 17 -8t17 8l93 92q7 7 7 17t-7 17l-93 93q-7 7 -17 7t-17 -7t-7 -17v-65q-113 -38 -165 -175q-40 62 -102.5 109t-129.5 74q-146 60 -274 28q22 119 68 144q81 45 328 45l57 -1h8q34 0 75.5 -1.5t110 -6.5t122 -18.5
t73.5 -33.5q27 -28 41.5 -127.5t15.5 -185.5l1 -85v-37t-3 -84t-8 -111t-17.5 -99.5t-29.5 -66.5z" />
    <glyph glyph-name="wuliu" unicode="&#xe6db;" 
d="M960 128h-32q0 -53 -37.5 -90.5t-90.5 -37.5t-90.5 37.5t-37.5 90.5h-320q0 -53 -37.5 -90.5t-90.5 -37.5t-90.5 37.5t-37.5 90.5h-32q-13 0 -22.5 9.5t-9.5 22.5v480q0 53 37.5 90.5t90.5 37.5h320q53 0 90.5 -37.5t37.5 -90.5h158q16 1 26 -9l189 -189l0.5 -1.5
l0.5 -1.5q10 -10 10 -23v-256q0 -13 -9.5 -22.5t-22.5 -9.5zM224 64q26 0 45 19t19 45t-19 45t-45 19t-45 -19t-19 -45t19 -45t45 -19zM544 640q0 26 -19 45t-45 19h-320q-26 0 -45 -19t-19 -45v-448h18q17 29 46 46.5t64 17.5t64 -17.5t46 -46.5h210v448zM800 64
q26 0 45 19t19 45t-19 45t-45 19t-45 -19t-19 -45t19 -45t45 -19zM928 401l-175 175h-145v-384h82q17 29 46 46.5t64 17.5t64 -17.5t46 -46.5h18v209z" />
    <glyph glyph-name="zhankai" unicode="&#xe6dd;" 
d="M791 490.5q-9 -8.5 -21.5 -8.5t-21.5 8l-237 238l-238 -238q-9 -8 -21.5 -8t-21.5 8.5t-9 21.5t9 22l254 253q3 6 4 7q9 9 23 8q13 1 23 -8q1 -1 4 -7l253 -253q9 -9 9 -22t-9 -21.5zM273 280l237 -237l236 237q9 9 22 9t21.5 -9t8.5 -21.5t-9 -21.5l-252 -254
q-3 -5 -5 -6q-9 -9 -22 -9q-14 0 -23 9q-1 1 -4 6l-253 254q-9 9 -9 21.5t9 21.5t21.5 9t21.5 -9z" />
    <glyph glyph-name="wancheng" unicode="&#xe6e5;" 
d="M381 147l-243 243q-10 10 -10 24t9.5 23.5t23.5 9.5t23 -10l228 -228l425 421q10 10 23.5 10t23 -9.5t9.5 -23t-10 -22.5l-441 -438q-17 -15 -32.5 -14t-28.5 14z" />
    <glyph glyph-name="shoucang" unicode="&#xe6fc;" horiz-adv-x="1025" 
d="M895 577l-266 2l-88 272l-0.5 0.5l-0.5 0.5q-8 21 -24.5 32.5t-36 11.5t-36.5 -11.5t-24 -32.5l-0.5 -0.5l-0.5 -0.5l-88 -272l-267 -2q-29 0 -47 -21.5t-16 -49.5t26 -46l213 -169l-78 -267q-10 -34 10.5 -61t51.5 -27q20 0 37 12l219 160l220 -160q17 -12 36 -12
q31 0 51.5 26.5t10.5 61.5l-78 267l214 169q23 18 25.5 46t-15.5 49.5t-48 21.5zM678 348q-17 -14 -23.5 -35t-0.5 -43l74 -257l-210 154q-17 13 -38.5 13t-39.5 -13l-210 -153l74 257q6 21 -0.5 42.5t-23.5 34.5l-204 164l256 -1q21 1 38.5 14t23.5 34l85 260l84 -258
q8 -21 25.5 -34t38.5 -14l258 1z" />
    <glyph glyph-name="caiwu" unicode="&#xe702;" 
d="M480 832q-130 0 -240.5 -64.5t-175 -175t-64.5 -240.5t64.5 -240.5t175 -175t240.5 -64.5t240.5 64.5t175 175t64.5 240.5t-64.5 240.5t-175 175t-240.5 64.5zM480 -64q-172 0 -294 122t-122 294t122 294t294 122t294 -122t122 -294t-122 -294t-294 -122zM697 589
q9 9 9 22t-9 22t-22 9t-22 -9l-174 -173l-171 171q-9 9 -21.5 9t-21.5 -9t-9 -21.5t9 -21.5l183 -183v-21h-160q-13 0 -22.5 -9.5t-9.5 -22.5t9.5 -22.5t22.5 -9.5h160v-128h-160q-13 0 -22.5 -9.5t-9.5 -22.5t9.5 -22.5t22.5 -9.5h160v-96q0 -13 9.5 -22.5t22.5 -9.5
t22.5 9.5t9.5 22.5v96h160q13 0 22.5 9.5t9.5 22.5t-9.5 22.5t-22.5 9.5h-160v128h160q13 0 22.5 9.5t9.5 22.5t-9.5 22.5t-22.5 9.5h-160v20z" />
    <glyph glyph-name="xin" unicode="&#xe711;" 
d="M769 768q-71 0 -131 -37t-94 -99q-33 62 -93.5 99t-132.5 37q-106 0 -180.5 -75t-74.5 -181q0 -100 68 -174l391 -393q10 -9 22 -9t22 9l391 393q67 73 67 174q0 106 -74.5 181t-180.5 75zM908 380l-364 -370l-364 370q-53 55 -53 132q0 80 56 136t135 56q63 0 114 -37.5
t70 -96.5q5 -12 16.5 -20.5t25.5 -8.5q30 0 42 29v0q19 59 69.5 96.5t113.5 37.5q79 0 135 -56t56 -136q1 -77 -52 -132z" />
    <glyph glyph-name="xin2" unicode="&#xe712;" 
d="M769 768q-71 0 -131 -37t-94 -99q-33 62 -93.5 99t-132.5 37q-106 0 -180.5 -75t-74.5 -181q0 -100 68 -174l391 -393q10 -9 22 -9t22 9l391 393q67 73 67 174q0 106 -74.5 181t-180.5 75z" />
    <glyph glyph-name="zuan" unicode="&#xe713;" 
d="M1010 578l-255 181q-1 0 -2 1q-6 4 -9 4h-6l-1 0.5l-1 0.5h-383q-1 0 -1.5 -0.5l-0.5 -0.5h-6q-7 -2 -11 -5h-1l-255 -185q-11 -8 -13 -21q-2 -14 7 -24l446 -580q1 -1 2 -1.5t1 -1t1 -0.5q1 -2 2 -2q0 -1 1 -1q0 -1 3 -2q3 -2 5 -2q1 -1 2 -1.5l1 -0.5q2 0 4.5 -0.5
t3.5 -0.5v0v0v0v0v0v0q5 0 8 1q2 1 3 2q2 0 5 2q1 0 2 0.5l1 0.5q0 1 1 1t2 2q1 1 1 1.5t1 1t2 0.5l447 584q8 12 6 25q-3 14 -13 21zM333 680l26 -104h-170zM902 576h-173l26 104zM664 576h-239l-32 125h301zM648 512l-104 -413l-103 413h207zM375 512l101 -403l-311 403
h210zM713 512h207l-308 -402z" />
    <glyph glyph-name="chanpin" unicode="&#xe719;" 
d="M768 576h-64v32q0 93 -65.5 158.5t-158.5 65.5t-158.5 -65.5t-65.5 -158.5v-32h-64q-53 0 -90.5 -37.5t-37.5 -90.5v-384q0 -53 37.5 -90.5t90.5 -37.5h576q53 0 90.5 37.5t37.5 90.5v384q0 53 -37.5 90.5t-90.5 37.5zM320 608q0 66 47 113t113 47t113 -47t47 -113v-32
h-320v32zM832 64q0 -26 -19 -45t-45 -19h-576q-26 0 -45 19t-19 45v384q0 26 19 45t45 19h64v-96q0 -13 9.5 -22.5t22.5 -9.5t22.5 9.5t9.5 22.5v96h320v-96q0 -13 9.5 -22.5t22.5 -9.5t22.5 9.5t9.5 22.5v96h64q26 0 45 -19t19 -45v-384z" />
    <glyph glyph-name="leimu" unicode="&#xe720;" 
d="M320 384h-128q-53 0 -90.5 -37.5t-37.5 -90.5v-128q0 -53 37.5 -90.5t90.5 -37.5h128q53 0 90.5 37.5t37.5 90.5v128q0 53 -37.5 90.5t-90.5 37.5zM384 128q0 -26 -19 -45t-45 -19h-128q-26 0 -45 19t-19 45v128q0 26 19 45t45 19h128q26 0 45 -19t19 -45v-128zM768 832
h-128q-53 0 -90.5 -37.5t-37.5 -90.5v-128q0 -53 37.5 -90.5t90.5 -37.5h128q53 0 90.5 37.5t37.5 90.5v128q0 53 -37.5 90.5t-90.5 37.5zM832 576q0 -26 -19 -45t-45 -19h-128q-26 0 -45 19t-19 45v128q0 26 19 45t45 19h128q26 0 45 -19t19 -45v-128zM768 384h-128
q-53 0 -90.5 -37.5t-37.5 -90.5v-128q0 -53 37.5 -90.5t90.5 -37.5h128q53 0 90.5 37.5t37.5 90.5v128q0 53 -37.5 90.5t-90.5 37.5zM832 128q0 -26 -19 -45t-45 -19h-128q-26 0 -45 19t-19 45v128q0 26 19 45t45 19h128q26 0 45 -19t19 -45v-128zM320 832h-128
q-53 0 -90.5 -37.5t-37.5 -90.5v-128q0 -53 37.5 -90.5t90.5 -37.5h128q53 0 90.5 37.5t37.5 90.5v128q0 53 -37.5 90.5t-90.5 37.5zM384 576q0 -26 -19 -45t-45 -19h-128q-26 0 -45 19t-19 45v128q0 26 19 45t45 19h128q26 0 45 -19t19 -45v-128z" />
    <glyph glyph-name="qiye" unicode="&#xe724;" 
d="M928 64h-32v448q0 53 -37.5 90.5t-90.5 37.5h-192v64q0 53 -37.5 90.5t-90.5 37.5h-256q-53 0 -90.5 -37.5t-37.5 -90.5v-640h-32q-13 0 -22.5 -9.5t-9.5 -22.5t9.5 -22.5t22.5 -9.5h896q13 0 22.5 9.5t9.5 22.5t-9.5 22.5t-22.5 9.5zM512 640v-64v-512h-384v640
q0 26 19 45t45 19h256q26 0 45 -19t19 -45v-64zM832 64h-256v512h192q26 0 45 -19t19 -45v-448zM416 640h-192q-13 0 -22.5 -9.5t-9.5 -22.5t9.5 -22.5t22.5 -9.5h192q13 0 22.5 9.5t9.5 22.5t-9.5 22.5t-22.5 9.5zM416 448h-192q-13 0 -22.5 -9.5t-9.5 -22.5t9.5 -22.5
t22.5 -9.5h192q13 0 22.5 9.5t9.5 22.5t-9.5 22.5t-22.5 9.5zM416 256h-192q-13 0 -22.5 -9.5t-9.5 -22.5t9.5 -22.5t22.5 -9.5h192q13 0 22.5 9.5t9.5 22.5t-9.5 22.5t-22.5 9.5zM736 448h-64q-13 0 -22.5 -9.5t-9.5 -22.5t9.5 -22.5t22.5 -9.5h64q13 0 22.5 9.5t9.5 22.5
t-9.5 22.5t-22.5 9.5zM736 256h-64q-13 0 -22.5 -9.5t-9.5 -22.5t9.5 -22.5t22.5 -9.5h64q13 0 22.5 9.5t9.5 22.5t-9.5 22.5t-22.5 9.5z" />
    <glyph glyph-name="shuxing" unicode="&#xe727;" 
d="M288 256q-13 0 -22.5 -9.5t-9.5 -22.5t9.5 -22.5t22.5 -9.5t22.5 9.5t9.5 22.5t-9.5 22.5t-22.5 9.5zM288 640q-13 0 -22.5 -9.5t-9.5 -22.5t9.5 -22.5t22.5 -9.5t22.5 9.5t9.5 22.5t-9.5 22.5t-22.5 9.5zM288 448q-13 0 -22.5 -9.5t-9.5 -22.5t9.5 -22.5t22.5 -9.5
t22.5 9.5t9.5 22.5t-9.5 22.5t-22.5 9.5zM768 832h-576q-53 0 -90.5 -37.5t-37.5 -90.5v-576q0 -53 37.5 -90.5t90.5 -37.5h576q53 0 90.5 37.5t37.5 90.5v576q0 53 -37.5 90.5t-90.5 37.5zM832 128q0 -26 -19 -45t-45 -19h-576q-26 0 -45 19t-19 45v576q0 26 19 45t45 19
h576q26 0 45 -19t19 -45v-576zM672 640h-256q-13 0 -22.5 -9.5t-9.5 -22.5t9.5 -22.5t22.5 -9.5h256q13 0 22.5 9.5t9.5 22.5t-9.5 22.5t-22.5 9.5zM672 448h-256q-13 0 -22.5 -9.5t-9.5 -22.5t9.5 -22.5t22.5 -9.5h256q13 0 22.5 9.5t9.5 22.5t-9.5 22.5t-22.5 9.5z
M672 256h-256q-13 0 -22.5 -9.5t-9.5 -22.5t9.5 -22.5t22.5 -9.5h256q13 0 22.5 9.5t9.5 22.5t-9.5 22.5t-22.5 9.5z" />
    <glyph glyph-name="shangchuan" unicode="&#xe72f;" 
d="M768 384h-96q-13 0 -22.5 -9.5t-9.5 -22.5t9.5 -22.5t22.5 -9.5h96q26 0 45 -19t19 -45v-192q0 -26 -19 -45t-45 -19h-576q-26 0 -45 19t-19 45v192q0 26 19 45t45 19h96q13 0 22.5 9.5t9.5 22.5t-9.5 22.5t-22.5 9.5h-96q-53 0 -90.5 -37.5t-37.5 -90.5v-192
q0 -53 37.5 -90.5t90.5 -37.5h576q53 0 90.5 37.5t37.5 90.5v192q0 53 -37.5 90.5t-90.5 37.5zM187 521l261 262v-560q0 -13 9 -22t22 -9t21.5 9t8.5 22v560l262 -262q10 -11 24.5 -11t24.5 11q11 11 11 25t-11 25l-312 313q-6 7 -17 9q-4 3 -12 3q-7 0 -12 -3
q-11 -2 -17 -9l-313 -313q-10 -11 -10 -25t10 -25q11 -10 25 -10t25 10z" />
    <glyph glyph-name="renminbi" unicode="&#xe738;" 
d="M480 832q-130 0 -240.5 -64.5t-175 -175t-64.5 -240.5t64.5 -240.5t175 -175t240.5 -64.5t240.5 64.5t175 175t64.5 240.5t-64.5 240.5t-175 175t-240.5 64.5zM480 -64q-172 0 -294 122t-122 294t122 294t294 122t294 -122t122 -294t-122 -294t-294 -122zM697 589
q9 9 9 22t-9 22t-22 9t-22 -9l-174 -173l-171 171q-9 9 -21.5 9t-21.5 -9t-9 -21.5t9 -21.5l183 -183v-21h-160q-13 0 -22.5 -9.5t-9.5 -22.5t9.5 -22.5t22.5 -9.5h160v-128h-160q-13 0 -22.5 -9.5t-9.5 -22.5t9.5 -22.5t22.5 -9.5h160v-96q0 -13 9.5 -22.5t22.5 -9.5
t22.5 9.5t9.5 22.5v96h160q13 0 22.5 9.5t9.5 22.5t-9.5 22.5t-22.5 9.5h-160v128h160q13 0 22.5 9.5t9.5 22.5t-9.5 22.5t-22.5 9.5h-160v20z" />
    <glyph glyph-name="renminbi2" unicode="&#xe739;" 
d="M480 832q-130 0 -240.5 -64.5t-175 -175t-64.5 -240.5t64.5 -240.5t175 -175t240.5 -64.5t240.5 64.5t175 175t64.5 240.5t-64.5 240.5t-175 175t-240.5 64.5zM672 384q13 0 22.5 -9.5t9.5 -22.5t-9.5 -22.5t-22.5 -9.5h-160v-128h160q13 0 22.5 -9.5t9.5 -22.5
t-9.5 -22.5t-22.5 -9.5h-160v-96q0 -13 -9.5 -22.5t-22.5 -9.5t-22.5 9.5t-9.5 22.5v96h-160q-13 0 -22.5 9.5t-9.5 22.5t9.5 22.5t22.5 9.5h160v128h-160q-13 0 -22.5 9.5t-9.5 22.5t9.5 22.5t22.5 9.5h160v21l-183 183q-9 9 -9 21.5t9 21.5t21.5 9t21.5 -9l171 -171
l174 173q9 9 22 9t22 -9t9 -22t-9 -22l-185 -185v-20h160z" />
    <glyph glyph-name="rili" unicode="&#xe73a;" 
d="M480 256h64q13 0 22.5 9.5t9.5 22.5t-9.5 22.5t-22.5 9.5h-64q-13 0 -22.5 -9.5t-9.5 -22.5t9.5 -22.5t22.5 -9.5zM480 128h64q13 0 22.5 9.5t9.5 22.5t-9.5 22.5t-22.5 9.5h-64q-13 0 -22.5 -9.5t-9.5 -22.5t9.5 -22.5t22.5 -9.5zM832 704h-128v32q0 13 -9.5 22.5
t-22.5 9.5t-22.5 -9.5t-9.5 -22.5v-32h-256v32q0 13 -9.5 22.5t-22.5 9.5t-22.5 -9.5t-9.5 -22.5v-32h-128q-53 0 -90.5 -37.5t-37.5 -90.5v-512q0 -53 37.5 -90.5t90.5 -37.5h640q53 0 90.5 37.5t37.5 90.5v512q0 53 -37.5 90.5t-90.5 37.5zM896 64q0 -26 -19 -45t-45 -19
h-640q-26 0 -45 19t-19 45v384h768v-384zM896 512h-768v64q0 26 19 45t45 19h128v-32q0 -13 9.5 -22.5t22.5 -9.5t22.5 9.5t9.5 22.5v32h256v-32q0 -13 9.5 -22.5t22.5 -9.5t22.5 9.5t9.5 22.5v32h128q26 0 45 -19t19 -45v-64zM288 128h64q13 0 22.5 9.5t9.5 22.5t-9.5 22.5
t-22.5 9.5h-64q-13 0 -22.5 -9.5t-9.5 -22.5t9.5 -22.5t22.5 -9.5zM672 256h64q13 0 22.5 9.5t9.5 22.5t-9.5 22.5t-22.5 9.5h-64q-13 0 -22.5 -9.5t-9.5 -22.5t9.5 -22.5t22.5 -9.5zM288 256h64q13 0 22.5 9.5t9.5 22.5t-9.5 22.5t-22.5 9.5h-64q-13 0 -22.5 -9.5
t-9.5 -22.5t9.5 -22.5t22.5 -9.5zM672 128h64q13 0 22.5 9.5t9.5 22.5t-9.5 22.5t-22.5 9.5h-64q-13 0 -22.5 -9.5t-9.5 -22.5t9.5 -22.5t22.5 -9.5z" />
    <glyph glyph-name="rili2" unicode="&#xe73b;" 
d="M704 736q0 13 -9.5 22.5t-22.5 9.5t-22.5 -9.5t-9.5 -22.5v-32h64v32zM384 736q0 13 -9.5 22.5t-22.5 9.5t-22.5 -9.5t-9.5 -22.5v-32h64v32zM832 704h-128v-96q0 -13 -9.5 -22.5t-22.5 -9.5t-22.5 9.5t-9.5 22.5v96h-256v-96q0 -13 -9.5 -22.5t-22.5 -9.5t-22.5 9.5
t-9.5 22.5v96h-128q-53 0 -90.5 -37.5t-37.5 -90.5v-512q0 -53 37.5 -90.5t90.5 -37.5h640q53 0 90.5 37.5t37.5 90.5v512q0 53 -37.5 90.5t-90.5 37.5zM352 128h-64q-13 0 -22.5 9.5t-9.5 22.5t9.5 22.5t22.5 9.5h64q13 0 22.5 -9.5t9.5 -22.5t-9.5 -22.5t-22.5 -9.5z
M352 256h-64q-13 0 -22.5 9.5t-9.5 22.5t9.5 22.5t22.5 9.5h64q13 0 22.5 -9.5t9.5 -22.5t-9.5 -22.5t-22.5 -9.5zM544 128h-64q-13 0 -22.5 9.5t-9.5 22.5t9.5 22.5t22.5 9.5h64q13 0 22.5 -9.5t9.5 -22.5t-9.5 -22.5t-22.5 -9.5zM544 256h-64q-13 0 -22.5 9.5t-9.5 22.5
t9.5 22.5t22.5 9.5h64q13 0 22.5 -9.5t9.5 -22.5t-9.5 -22.5t-22.5 -9.5zM736 128h-64q-13 0 -22.5 9.5t-9.5 22.5t9.5 22.5t22.5 9.5h64q13 0 22.5 -9.5t9.5 -22.5t-9.5 -22.5t-22.5 -9.5zM736 256h-64q-13 0 -22.5 9.5t-9.5 22.5t9.5 22.5t22.5 9.5h64q13 0 22.5 -9.5
t9.5 -22.5t-9.5 -22.5t-22.5 -9.5zM864 448h-704q-13 0 -22.5 9.5t-9.5 22.5t9.5 22.5t22.5 9.5h704q13 0 22.5 -9.5t9.5 -22.5t-9.5 -22.5t-22.5 -9.5z" />
    <glyph glyph-name="erweima" unicode="&#xe748;" 
d="M192 512h128v128h-128v-128zM64 -64h384v384h-384v-384zM128 256h256v-256h-256v256zM192 64h128v128h-128v-128zM512 768v-384h384v384h-384zM832 448h-256v256h256v-256zM832 192h-128v128h-128h-64v-128v-256h64v256h64v-64h192h64v192h-64v-128zM64 384h384v384h-384
v-384zM128 704h256v-256h-256v256zM768 640h-128v-128h128v128zM832 -64h64v128h-64v-128zM704 -64h64v128h-64v-128z" />
    <glyph glyph-name="houtui" unicode="&#xe749;" 
d="M695 56l-296 299l286 295q9 9 9 22.5t-9 22.5q-9 10 -22 10t-22 -10l-310 -320q-9 -10 -9 -23t9 -22q2 -2 8 -6l311 -314q10 -10 23 -10t23 10q8 9 8 22.5t-9 23.5z" />
    <glyph glyph-name="qianjin" unicode="&#xe74e;" 
d="M695 376l-318 320q-10 9 -23 9t-22 -9q-10 -10 -10 -23.5t10 -22.5l293 -295l-304 -299q-9 -9 -9 -22.5t9 -22.5q10 -10 23.5 -10t22.5 10l319 314q8 7 12.5 14.5t4.5 17.5t-8 19z" />
    <glyph glyph-name="shouqi" unicode="&#xe752;" 
d="M822 246l-320 318q-9 10 -22.5 10t-22.5 -10q-2 -1 -3 -3l-318 -315q-10 -9 -10 -22t9.5 -23t23 -10t22.5 10l299 295l297 -295q10 -10 23 -10t22.5 10t9.5 23t-10 22z" />
    <glyph glyph-name="xiala" unicode="&#xe756;" 
d="M824.5 567q-9.5 10 -23 10t-22.5 -10l-297 -295l-298 295q-10 10 -23.5 10t-22.5 -10q-9 -9 -9 -22.5t9 -22.5l318 -315l1 -1.5t1 -2.5q10 -10 23.5 -10t22.5 10l320 318q10 10 10 23t-9.5 23z" />
    <glyph glyph-name="yuandianxiao" unicode="&#xe757;" 
d="M480 416zM320 416q0 66 47 113t113 47t113 -47t47 -113t-47 -113t-113 -47t-113 47t-47 113z" />
    <glyph glyph-name="zhuxingtu" unicode="&#xe759;" 
d="M288 320q-13 0 -22.5 -9.5t-9.5 -22.5v-128q0 -13 9.5 -22.5t22.5 -9.5t22.5 9.5t9.5 22.5v128q0 13 -9.5 22.5t-22.5 9.5zM480 640q-13 0 -22.5 -9.5t-9.5 -22.5v-448q0 -13 9.5 -22.5t22.5 -9.5t22.5 9.5t9.5 22.5v448q0 13 -9.5 22.5t-22.5 9.5zM768 768h-576
q-53 0 -90.5 -37.5t-37.5 -90.5v-576q0 -53 37.5 -90.5t90.5 -37.5h576q53 0 90.5 37.5t37.5 90.5v576q0 53 -37.5 90.5t-90.5 37.5zM832 64q0 -26 -19 -45t-45 -19h-576q-26 0 -45 19t-19 45v576q0 26 19 45t45 19h576q26 0 45 -19t19 -45v-576zM672 448q-13 0 -22.5 -9.5
t-9.5 -22.5v-256q0 -13 9.5 -22.5t22.5 -9.5t22.5 9.5t9.5 22.5v256q0 13 -9.5 22.5t-22.5 9.5z" />
    <glyph glyph-name="zoushitu" unicode="&#xe75a;" 
d="M768 768h-576q-53 0 -90.5 -37.5t-37.5 -90.5v-576q0 -53 37.5 -90.5t90.5 -37.5h576q53 0 90.5 37.5t37.5 90.5v576q0 53 -37.5 90.5t-90.5 37.5zM321 488l-193 -193v345q0 26 19 45t45 19h576q26 0 45 -19t19 -45v-25l-288 -288l-161 161q-30 29 -62 0zM577 285
l255 255v-476q0 -26 -19 -45t-45 -19h-576q-26 0 -45 19t-19 45v156l224 224l159 -159q35 -32 66 0z" />
    <glyph glyph-name="guanlianreci" unicode="&#xe776;" 
d="M887.5 287q-6.5 0 -11 -4.5t-4.5 -11.5v-112q0 -26 -19 -45t-45 -19h-704q-27 0 -45.5 19t-18.5 45v384q0 27 18.5 45.5t45.5 18.5h432q6 0 11 4.5t5 11.5t-5 11.5t-11 4.5h-432q-40 0 -68 -28t-28 -68v-384q0 -40 28 -68t68 -28h704q40 0 68 28t28 68v112q0 7 -5 11.5
t-11.5 4.5zM136 431q0 -7 4.5 -11.5t11.5 -4.5h416q6 0 11 4.5t5 11.5t-5 11.5t-11 4.5h-416q-7 0 -11.5 -4.5t-4.5 -11.5zM136 271q0 -7 4.5 -11.5t11.5 -4.5h608q6 0 11 4.5t5 11.5t-5 11.5t-11 4.5h-608q-7 0 -11.5 -4.5t-4.5 -11.5zM1006 557q12 9 16 23.5t0 28.5
q-5 14 -16 22.5t-24 8.5h-84v0q-11 0 -13 7l-24 90q-4 14 -15 22.5t-25 8.5h-1q-14 0 -25 -8.5t-15 -22.5l-26 -89q-2 -9 -13 -8h-83q-31 0 -41 -29q-5 -14 -0.5 -28t15.5 -22l68 -47q8 -7 5 -17l-28 -84q-4 -14 0.5 -28t15.5 -23q25 -17 49 1l68 53q8 6 15 0l67 -54
q12 -9 26 -9q13 0 24 7q11 9 16 22.5t0 27.5l-26 85q-3 10 5 17zM902 485l26 -84q3 -9 -4 -14q-6 -4 -12 0l-67 54q-12 9 -27 9t-27 -9l-68 -52q-6 -5 -11 -1q-8 6 -5 15l28 84q5 14 0.5 28.5t-16.5 23.5l-68 47q-7 5 -4 14t10 8h84q16 -1 27.5 7.5t16.5 23.5l25 89
q3 8 10 8q8 0 10 -8l25 -90q9 -30 43 -30h84v0q7 0 10 -9q3 -10 -4 -16l-69 -46q-12 -8 -16.5 -22.5t-0.5 -29.5z" />
    <glyph glyph-name="lianjieguanlian" unicode="&#xe77c;" horiz-adv-x="1025" 
d="M769 640h-128q-27 0 -45.5 -18.5t-18.5 -45.5t18.5 -45.5t45.5 -18.5h128q53 0 90.5 -37.5t37.5 -90.5t-37.5 -90.5t-90.5 -37.5h-128q-27 0 -45.5 -18.5t-18.5 -45.5t18.5 -45.5t45.5 -18.5h128q106 0 181 75t75 181t-75 181t-181 75zM385 256h-128q-53 0 -90.5 37.5
t-37.5 90.5t37.5 90.5t90.5 37.5h128q26 0 45 18.5t19 45.5t-19 45.5t-45 18.5h-128q-107 0 -181.5 -75t-74.5 -181t74.5 -181t181.5 -75h128q26 0 45 18.5t19 45.5t-19 45.5t-45 18.5zM321 384q0 -27 18.5 -45.5t45.5 -18.5h256q26 0 45 18.5t19 45.5t-19 45.5t-45 18.5
h-256q-27 0 -45.5 -18.5t-18.5 -45.5z" />
    <glyph glyph-name="shangpingouwudai" unicode="&#xe788;" 
d="M831 612q-2 12 -11 20t-21 8h-160v32q0 66 -47 113t-113 47t-112.5 -47t-46.5 -113v-32h-160q-12 0 -21.5 -8t-10.5 -20l-64 -576q-1 -15 8.5 -25.5t23.5 -10.5h767q14 0 23.5 10.5t7.5 25.5zM383 672q0 40 28.5 68t68 28t67.5 -28t28 -68v-32h-192v32zM132 64l57 512
h131v-96q0 -13 9 -22.5t22.5 -9.5t23 9.5t9.5 22.5v96h191v-96q0 -13 9.5 -22.5t22.5 -9.5t22.5 9.5t9.5 22.5v96h131l57 -512h-695z" />
    <glyph glyph-name="tubiaozhexiantu" unicode="&#xe79a;" 
d="M929 0h-864v272l185 185q19 -9 39.5 -9t39.5 9l129 -129q-9 -19 -9 -40q0 -40 28.5 -68t68 -28t67.5 28t28 68q0 20 -8 40l317 317q10 10 10 25t-10 25t-25 10t-25 -10l-318 -318q-18 7 -37 7t-36 -7l-131 131q7 17 7 36q0 40 -28 68t-67.5 28t-68 -28t-28.5 -68
q0 -19 8 -36l-136 -136v364q0 13 -9 22.5t-22.5 9.5t-23 -9.5t-9.5 -22.5v-437q-1 -7 0 -13v-318q0 -13 9.5 -22.5t22.5 -9.5h896q14 0 23 9.5t9 22.5t-9 22.5t-23 9.5zM545.5 320q13.5 0 22.5 -9.5t9 -22.5t-9 -22.5t-22.5 -9.5t-23 9.5t-9.5 22.5t9.5 22.5t23 9.5z
M289.5 576q13.5 0 22.5 -9.5t9 -22.5t-9 -22.5t-22.5 -9.5t-23 9.5t-9.5 22.5t9.5 22.5t23 9.5z" />
    <glyph glyph-name="xiaoxi" unicode="&#xe7a8;" 
d="M832 768h-640q-53 0 -90.5 -37.5t-37.5 -90.5v-384q0 -53 37.5 -90.5t90.5 -37.5h128v-65q0 -39 35 -57q13 -6 28 -6q21 0 38 13l149 115h262q53 0 90.5 37.5t37.5 90.5v384q0 53 -37.5 90.5t-90.5 37.5zM896 256q0 -27 -18.5 -45.5t-45.5 -18.5h-273q-10 0 -19 -7
l-156 -122v97q0 13 -9.5 22.5t-22.5 9.5h-160q-27 0 -45.5 18.5t-18.5 45.5v384q0 27 18.5 45.5t45.5 18.5h640q27 0 45.5 -18.5t18.5 -45.5v-384zM320 512q-27 0 -45.5 -18.5t-18.5 -45.5t18.5 -45.5t45.5 -18.5t45.5 18.5t18.5 45.5t-18.5 45.5t-45.5 18.5zM512 512
q-27 0 -45.5 -18.5t-18.5 -45.5t18.5 -45.5t45.5 -18.5t45.5 18.5t18.5 45.5t-18.5 45.5t-45.5 18.5zM704 512q-27 0 -45.5 -18.5t-18.5 -45.5t18.5 -45.5t45.5 -18.5t45.5 18.5t18.5 45.5t-18.5 45.5t-45.5 18.5z" />
    <glyph glyph-name="xiaolianmanyifuwu" unicode="&#xe7a9;" 
d="M480 832q-98 0 -186.5 -38t-153 -102.5t-102.5 -153t-38 -186.5t38 -186.5t102.5 -153t153 -102.5t186.5 -38t186.5 38t153 102.5t102.5 153t38 186.5t-38 186.5t-102.5 153t-153 102.5t-186.5 38zM256 512q27 0 45.5 -18.5t18.5 -45.5t-18.5 -45.5t-45.5 -18.5
t-45.5 18.5t-18.5 45.5t18.5 45.5t45.5 18.5zM739 228q-35 -74 -105 -119t-154 -45t-154 45t-105 119q-10 10 -10 24t9.5 24t23.5 10q13 0 22 -8t11 -20q27 -58 81.5 -94t121.5 -36t121.5 36t81.5 95q3 12 12 19.5t21 7.5q14 0 24 -10t10 -24t-11 -24zM704 384
q-27 0 -45.5 18.5t-18.5 45.5t18.5 45.5t45.5 18.5t45.5 -18.5t18.5 -45.5t-18.5 -45.5t-45.5 -18.5z" />
    <glyph glyph-name="zhuzhuangtutubiao" unicode="&#xe7b5;" 
d="M256 448h-128q-27 0 -45.5 -18.5t-18.5 -45.5v-320q0 -27 18.5 -45.5t45.5 -18.5h128q27 0 45.5 18.5t18.5 45.5v320q0 27 -18.5 45.5t-45.5 18.5zM256 64h-128v320h128v-320zM896 576h-128q-27 0 -45.5 -18.5t-18.5 -45.5v-448q0 -27 18.5 -45.5t45.5 -18.5h128
q27 0 45.5 18.5t18.5 45.5v448q0 27 -18.5 45.5t-45.5 18.5zM896 64h-128v448h128v-448zM576 832h-128q-27 0 -45.5 -18.5t-18.5 -45.5v-704q0 -27 18.5 -45.5t45.5 -18.5h128q27 0 45.5 18.5t18.5 45.5v704q0 27 -18.5 45.5t-45.5 18.5zM576 64h-128v704h128v-704z" />
    <glyph glyph-name="v0" unicode="&#xe7be;" 
d="M832 832h-640q-53 0 -90.5 -37.5t-37.5 -90.5v-640q0 -53 37.5 -90.5t90.5 -37.5h640q53 0 90.5 37.5t37.5 90.5v640q0 53 -37.5 90.5t-90.5 37.5zM896 160q0 -40 -28 -68t-68 -28t-68 28t-28 68v128q0 40 28 68t68 28t68 -28t28 -68v-128zM864 576h-83l-383 -478
q-28 -34 -72 -34q-29 0 -49.5 20.5t-20.5 49.5v570h-96q-13 0 -22.5 9.5t-9.5 22.5t9.5 22.5t22.5 9.5h192q13 0 22.5 -9.5t9.5 -22.5v-499l270 339h-46q-13 0 -22.5 9.5t-9.5 22.5t9.5 22.5t22.5 9.5h256q13 0 22.5 -9.5t9.5 -22.5t-9.5 -22.5t-22.5 -9.5zM800 320
q-13 0 -22.5 -9.5t-9.5 -22.5v-128q0 -13 9.5 -22.5t22.5 -9.5t22.5 9.5t9.5 22.5v128q0 13 -9.5 22.5t-22.5 9.5z" />
    <glyph glyph-name="v1" unicode="&#xe7bf;" 
d="M832 832h-640q-53 0 -90.5 -37.5t-37.5 -90.5v-640q0 -53 37.5 -90.5t90.5 -37.5h640q53 0 90.5 37.5t37.5 90.5v640q0 53 -37.5 90.5t-90.5 37.5zM864 64h-128q-13 0 -22.5 9.5t-9.5 22.5t9.5 22.5t22.5 9.5h32v192h-32q-13 0 -22.5 9.5t-9.5 22.5t9.5 22.5t22.5 9.5h64
q13 0 22.5 -9.5t9.5 -22.5v-224h32q13 0 22.5 -9.5t9.5 -22.5t-9.5 -22.5t-22.5 -9.5zM864 576h-83l-383 -478q-28 -34 -72 -34q-29 0 -49.5 20.5t-20.5 49.5v570h-96q-13 0 -22.5 9.5t-9.5 22.5t9.5 22.5t22.5 9.5h192q13 0 22.5 -9.5t9.5 -22.5v-499l270 339h-46
q-13 0 -22.5 9.5t-9.5 22.5t9.5 22.5t22.5 9.5h256q13 0 22.5 -9.5t9.5 -22.5t-9.5 -22.5t-22.5 -9.5z" />
    <glyph glyph-name="v2" unicode="&#xe7c0;" 
d="M832 832h-640q-53 0 -90.5 -37.5t-37.5 -90.5v-640q0 -53 37.5 -90.5t90.5 -37.5h640q53 0 90.5 37.5t37.5 90.5v640q0 53 -37.5 90.5t-90.5 37.5zM896 224q0 -13 -9.5 -22.5t-22.5 -9.5h-96v-64h96q13 0 22.5 -9.5t9.5 -22.5t-9.5 -22.5t-22.5 -9.5h-128
q-13 0 -22.5 9.5t-9.5 22.5v128q0 13 9.5 22.5t22.5 9.5h96v64h-96q-13 0 -22.5 9.5t-9.5 22.5t9.5 22.5t22.5 9.5h128q13 0 22.5 -9.5t9.5 -22.5v-128zM864 576h-83l-383 -478q-28 -34 -72 -34q-29 0 -49.5 20.5t-20.5 49.5v570h-96q-13 0 -22.5 9.5t-9.5 22.5t9.5 22.5
t22.5 9.5h192q13 0 22.5 -9.5t9.5 -22.5v-499l270 339h-46q-13 0 -22.5 9.5t-9.5 22.5t9.5 22.5t22.5 9.5h256q13 0 22.5 -9.5t9.5 -22.5t-9.5 -22.5t-22.5 -9.5z" />
    <glyph glyph-name="v3" unicode="&#xe7c1;" 
d="M832 832h-640q-53 0 -90.5 -37.5t-37.5 -90.5v-640q0 -53 37.5 -90.5t90.5 -37.5h640q53 0 90.5 37.5t37.5 90.5v640q0 53 -37.5 90.5t-90.5 37.5zM896 96q0 -13 -9.5 -22.5t-22.5 -9.5h-128q-13 0 -22.5 9.5t-9.5 22.5t9.5 22.5t22.5 9.5h96v64h-96q-13 0 -22.5 9.5
t-9.5 22.5t9.5 22.5t22.5 9.5h96v64h-96q-13 0 -22.5 9.5t-9.5 22.5t9.5 22.5t22.5 9.5h128q13 0 22.5 -9.5t9.5 -22.5v-256zM864 576h-83l-383 -478q-28 -34 -72 -34q-29 0 -49.5 20.5t-20.5 49.5v570h-96q-13 0 -22.5 9.5t-9.5 22.5t9.5 22.5t22.5 9.5h192q13 0 22.5 -9.5
t9.5 -22.5v-499l270 339h-46q-13 0 -22.5 9.5t-9.5 22.5t9.5 22.5t22.5 9.5h256q13 0 22.5 -9.5t9.5 -22.5t-9.5 -22.5t-22.5 -9.5z" />
    <glyph glyph-name="v4" unicode="&#xe7c2;" 
d="M832 832h-640q-53 0 -90.5 -37.5t-37.5 -90.5v-640q0 -53 37.5 -90.5t90.5 -37.5h640q53 0 90.5 37.5t37.5 90.5v640q0 53 -37.5 90.5t-90.5 37.5zM896 96q0 -13 -9.5 -22.5t-22.5 -9.5t-22.5 9.5t-9.5 22.5v96h-96q-13 0 -22.5 9.5t-9.5 22.5v128q0 13 9.5 22.5
t22.5 9.5t22.5 -9.5t9.5 -22.5v-96h64v96q0 13 9.5 22.5t22.5 9.5t22.5 -9.5t9.5 -22.5v-256zM864 576h-83l-383 -478q-28 -34 -72 -34q-29 0 -49.5 20.5t-20.5 49.5v570h-96q-13 0 -22.5 9.5t-9.5 22.5t9.5 22.5t22.5 9.5h192q13 0 22.5 -9.5t9.5 -22.5v-499l270 339h-46
q-13 0 -22.5 9.5t-9.5 22.5t9.5 22.5t22.5 9.5h256q13 0 22.5 -9.5t9.5 -22.5t-9.5 -22.5t-22.5 -9.5z" />
    <glyph glyph-name="v5" unicode="&#xe7c3;" 
d="M832 832h-640q-53 0 -90.5 -37.5t-37.5 -90.5v-640q0 -53 37.5 -90.5t90.5 -37.5h640q53 0 90.5 37.5t37.5 90.5v640q0 53 -37.5 90.5t-90.5 37.5zM864 256q13 0 22.5 -9.5t9.5 -22.5v-128q0 -13 -9.5 -22.5t-22.5 -9.5h-128q-13 0 -22.5 9.5t-9.5 22.5t9.5 22.5
t22.5 9.5h96v64h-96q-13 0 -22.5 9.5t-9.5 22.5v128q0 13 9.5 22.5t22.5 9.5h128q13 0 22.5 -9.5t9.5 -22.5t-9.5 -22.5t-22.5 -9.5h-96v-64h96zM864 576h-83l-383 -478q-28 -34 -72 -34q-29 0 -49.5 20.5t-20.5 49.5v570h-96q-13 0 -22.5 9.5t-9.5 22.5t9.5 22.5t22.5 9.5
h192q13 0 22.5 -9.5t9.5 -22.5v-499l270 339h-46q-13 0 -22.5 9.5t-9.5 22.5t9.5 22.5t22.5 9.5h256q13 0 22.5 -9.5t9.5 -22.5t-9.5 -22.5t-22.5 -9.5z" />
    <glyph glyph-name="v6" unicode="&#xe7c4;" 
d="M768 128h64v64h-64v-64zM832 832h-640q-53 0 -90.5 -37.5t-37.5 -90.5v-640q0 -53 37.5 -90.5t90.5 -37.5h640q53 0 90.5 37.5t37.5 90.5v640q0 53 -37.5 90.5t-90.5 37.5zM864 256q13 0 22.5 -9.5t9.5 -22.5v-128q0 -13 -9.5 -22.5t-22.5 -9.5h-128q-13 0 -22.5 9.5
t-9.5 22.5v256q0 13 9.5 22.5t22.5 9.5h128q13 0 22.5 -9.5t9.5 -22.5t-9.5 -22.5t-22.5 -9.5h-96v-64h96zM864 576h-83l-383 -478q-28 -34 -72 -34q-29 0 -49.5 20.5t-20.5 49.5v570h-96q-13 0 -22.5 9.5t-9.5 22.5t9.5 22.5t22.5 9.5h192q13 0 22.5 -9.5t9.5 -22.5v-499
l270 339h-46q-13 0 -22.5 9.5t-9.5 22.5t9.5 22.5t22.5 9.5h256q13 0 22.5 -9.5t9.5 -22.5t-9.5 -22.5t-22.5 -9.5z" />
    <glyph glyph-name="duorenyonghu2" unicode="&#xe7db;" 
d="M523 298q54 34 85.5 91t31.5 123q0 106 -75 181t-181 75t-181 -75t-75 -181q0 -66 31.5 -123t85.5 -91q-111 -37 -178 -124t-67 -206q0 -13 9.5 -22.5t22.5 -9.5h704q13 0 22.5 9.5t9.5 22.5q0 119 -67 206t-178 124zM804 294q57 35 90.5 92.5t33.5 125.5q0 106 -75 181
t-181 75q-13 0 -22.5 -9.5t-9.5 -22.5t9.5 -22.5t22.5 -9.5q79 0 135.5 -56.5t56.5 -135.5q0 -52 -26 -96t-70 -70q-29 -17 -41.5 -37t-2.5 -40t44 -32q85 -31 138.5 -104t53.5 -166q0 -13 9.5 -22.5t22.5 -9.5t22.5 9.5t9.5 22.5q0 110 -61 198.5t-159 128.5z" />
    <glyph glyph-name="duorenyonghu" unicode="&#xe7dc;" 
d="M524 298q53 35 84.5 91.5t31.5 122.5q0 106 -75 181t-181 75t-181 -75t-75 -181q0 -66 31.5 -122.5t84.5 -91.5q-110 -36 -177 -123.5t-67 -206.5q0 -13 9.5 -22.5t22.5 -9.5t22.5 9.5t9.5 22.5q0 129 92 208.5t228 79.5t228 -79.5t92 -208.5q0 -13 9.5 -22.5t22.5 -9.5
t22.5 9.5t9.5 22.5q0 119 -67 206.5t-177 123.5zM384 320q-79 0 -135.5 56.5t-56.5 135.5t56.5 135.5t135.5 56.5t135.5 -56.5t56.5 -135.5t-56.5 -135.5t-135.5 -56.5zM804 294q57 35 90.5 92.5t33.5 125.5q0 106 -75 181t-181 75q-13 0 -22.5 -9.5t-9.5 -22.5t9.5 -22.5
t22.5 -9.5q79 0 135.5 -56.5t56.5 -135.5q0 -52 -26 -96t-70 -70q-29 -17 -41.5 -37t-2.5 -40t44 -32q85 -31 138.5 -104t53.5 -166q0 -13 9.5 -22.5t22.5 -9.5t22.5 9.5t9.5 22.5q0 110 -61 198.5t-159 128.5z" />
    <glyph glyph-name="jingshigantanhao" unicode="&#xe7f3;" 
d="M512 640q-26 0 -45 -19t-19 -45v-192q0 -26 19 -45t45 -19t45 19t19 45v192q0 26 -19 45t-45 19zM512 832q-186 0 -317 -131t-131 -317t131 -317t317 -131t317 131t131 317t-131.5 317t-316.5 131zM512 0q-159 0 -271.5 112.5t-112.5 271.5t112.5 271.5t271.5 112.5
t271.5 -112.5t112.5 -271.5t-112.5 -271.5t-271.5 -112.5zM512 256q-26 0 -45 -19t-19 -45t19 -45t45 -19t45 19t19 45t-19 45t-45 19z" />
    <glyph glyph-name="jingshigantanhao2" unicode="&#xe7f4;" 
d="M512 832q-186 0 -317 -131t-131 -317t131 -317t317 -131t317 131t131 317t-131 317t-317 131zM512 128q-26 0 -45 19t-19 45t19 45t45 19t45 -19t19 -45t-19 -45t-45 -19zM576 384q0 -26 -19 -45t-45 -19t-45 19t-19 45v192q0 26 19 45t45 19t45 -19t19 -45v-192z" />
    <glyph glyph-name="paixujiantoushang" unicode="&#xe7fe;" 
d="M758 510l-218 246q-12 12 -28 12t-27 -12l-219 -246q-16 -18 -6.5 -40t33.5 -22h438q24 0 33.5 22t-6.5 40z" />
    <glyph glyph-name="paixujiantouxia" unicode="&#xe7ff;" 
d="M758 259l-219 -246q-11 -13 -27.5 -13t-27.5 13l-218 246q-16 17 -6.5 39t33.5 22h438q24 0 33.5 -22t-6.5 -39z" />
    <glyph glyph-name="shujubao" unicode="&#xe84e;" 
d="M512 638q206 0 320 43v-203q0 -13 9.5 -22.5t22.5 -9.5t22.5 9.5t9.5 22.5v256q0 40 -112.5 68.5t-271.5 28.5t-271.5 -28.5t-112.5 -68.5v-638q0 -30 28 -53t75.5 -36.5t90 -21t90.5 -11.5h3q12 0 21.5 8t10.5 21t-7.5 23t-21.5 11q-71 7 -125 19.5t-75.5 22.5t-25.5 17
v0v1v0v0v0v1v0v0v1v0v0v1v0v0v1v0v1v0v0v1v0v1v0v1v0v0v1v0v1v0v1v0v1v0v1v0v1v0v1v0v1v1v0v1v0v1v0v1v1v0v1v0v1v1v0v1v1v0v1v1v0v1v1v0v1v1v0v1v1v0v1v1v1v0v1v1v1v0v1v1v1v0v1v1v1v1v0v1v1v1v1v1v0v1v1v1v1v1v0v1v1v1v1v1v1v1v1v0v1v1v1v1v1v1v1v1v1v1v1v1v1v1v0v1v1v1v1
v1v1v1v1v1v1v1v1v1v1v1v1v2v1v1v1v1v1v1v1v1v1v1v1v1v1v1v2v1v1v1v1v1v1v1v1v2v1v1v1v1v1v1v2v1v1v1v1v1v1v2v1v1v1v1v2v1v1v1v1v2v1v1v1v1v2v1v1v1v2v1v1v1v2v1v1v1v2v1v1v1v2v1v1v2v1v1v1v2v1v1v2v1v1v2v1v1v1v2v1v1v2v1v1v2v1v2v1v1v2v1v1v2v1v1v2v1v2v1v1v2v1v1v2v1v2v1
v2v1v1v2v1v2v1v1v2v1v2v1v2v1v2v1v1v2v1v2v1v2v1v2v1v2v1v2v1v2v1v1v2v1v2v1v2v1v2v2v1v2v1v2v1v2v1v2v1v2v1v2v1v2v1v2v2v1v2v1v2v1v2v2v1v2v1v2v1v2v2v1v2v1v2v2v1v2v1v2v2v1v2v1v2v2v1v2v2v1v2v1v2v2v1v2v2v1v2v2v1v2v2v1v2v2v1v2v2v1v2v2v1v2v2v2v1v2v2v1v2v2v1v2v2v2v1
v2v2v2v1v2v2v1v2v2v2v1v2v2v2v1v2v2v2v2v1v2v2v2v1v2v2v2v2v1v2v2v2v2v1v2v2v2v2v1v2v2v2v2v2v1v2v2v2v2v2v1v2v2v2v2v2v2v1v2v2v2v2v2v2v2v2v1v2v2v2v2v2v2v2v2v2v9q114 -43 320 -43zM512 766q171 0 278 -32q-107 -32 -278 -32t-278 32q107 32 278 32zM896 256v64
q0 27 -18.5 45.5t-45.5 18.5h-192q-26 0 -45 -18.5t-19 -45.5v-64q-26 0 -45 -18.5t-19 -45.5v-192q0 -26 19 -45t45 -19h320q27 0 45.5 19t18.5 45v192q0 27 -18.5 45.5t-45.5 18.5zM832 256h-192v64h192v-64z" />
    <glyph glyph-name="shujuji" unicode="&#xe84f;" 
d="M512 769q-159 0 -271.5 -28t-112.5 -68v-641q0 -40 112.5 -68t271.5 -28q130 0 232 19.5t137 50.5q15 9 15 26v641q0 40 -112.5 68t-271.5 28zM512 705q171 0 278 -32q-108 -32 -278 -32t-278 32q108 32 278 32zM832 64q-9 -24 -42 -32q-108 -32 -278 -32t-278 32
q-19 6 -29.5 14.5t-11.5 12t-1 5.5v556q114 -43 320 -43t320 43v-556z" />
    <glyph glyph-name="shujuyuan" unicode="&#xe857;" 
d="M448 705q-159 0 -271.5 -28t-112.5 -68v-641q0 -40 112.5 -68t271.5 -28q130 0 232 19.5t137 49.5q15 12 15 27v641q0 40 -112.5 68t-271.5 28zM448 641q170 0 278 -32q-107 -32 -278 -32t-278 32q108 32 278 32zM768 0q0 -4 -2.5 -8t-6.5 -7t-8.5 -6t-8.5 -5t-8 -3
t-6 -2l-2 -1q-108 -32 -278 -32t-278 32q-18 6 -28.5 14.5t-12 12t-1.5 5.5v556q114 -43 320 -43t320 43v-556zM601 896q-35 0 -80 -2.5t-118 -13.5t-120 -29l-2 -1q-10 -3 -17.5 -11.5t-7.5 -19.5q0 -13 9.5 -22.5t22.5 -9.5q1 0 2 0.5t2 0.5v-1q3 1 4 2q5 1 6 1
q151 44 299 44q167 -1 258 -35q19 -7 24.5 -11.5t9 -18t3.5 -45.5l-1 -538v-1v-2q1 -13 10 -21t23 -8q12 0 20.5 7t10.5 18q1 5 1 7v605q0 24 -22 42.5t-59 29.5t-75.5 18t-83.5 10t-70.5 4t-48.5 1z" />
    <glyph glyph-name="suo" unicode="&#xe85a;" 
d="M767 512h-63v98q0 91 -65.5 156t-158.5 65t-159 -65t-66 -156v-98h-64q-53 0 -90.5 -37.5t-37.5 -90.5v-320q0 -53 37.5 -90.5t90.5 -37.5h576q53 0 90.5 37.5t37.5 90.5v320q0 53 -37.5 90.5t-90.5 37.5zM319 610q0 65 47 111.5t113.5 46.5t113.5 -46.5t47 -111.5v-98
h-321v98zM831 64q0 -27 -18.5 -45.5t-45.5 -18.5h-576q-26 0 -45 18.5t-19 45.5v320q0 27 19 45.5t45 18.5h576q27 0 45.5 -18.5t18.5 -45.5v-320zM479 384q-40 0 -68 -28t-28 -68q0 -31 18 -55.5t46 -34.5v-102q0 -13 9.5 -22.5t22.5 -9.5t22.5 9.5t9.5 22.5v102
q29 10 46.5 34.5t17.5 55.5q0 40 -28 68t-68 28z" />
    <glyph glyph-name="tupian01" unicode="&#xe87a;" 
d="M832 832h-640q-53 0 -90.5 -37.5t-37.5 -90.5v-576q0 -53 37.5 -90.5t90.5 -37.5h640q53 0 90.5 37.5t37.5 90.5v576q0 53 -37.5 90.5t-90.5 37.5zM896 128q0 -27 -18.5 -45.5t-45.5 -18.5h-640q-36 0 -55 32l215 215l103 -104q10 -10 26.5 -8t28.5 14l226 226l160 -161
v-150zM896 366l-139 139q-9 9 -22 9t-22 -9q-1 -1 -1.5 -2.5t-0.5 -2.5l-231 -231l-107 108q-9 9 -22 9t-22 -9q-1 -1 -1.5 -2.5t-0.5 -2.5l-199 -199v531q0 27 18.5 45.5t45.5 18.5h640q27 0 45.5 -18.5t18.5 -45.5v-338zM448 704q-53 0 -90.5 -37.5t-37.5 -90.5
t37.5 -90.5t90.5 -37.5t90.5 37.5t37.5 90.5t-37.5 90.5t-90.5 37.5zM448 512q-27 0 -45.5 18.5t-18.5 45.5t18.5 45.5t45.5 18.5t45.5 -18.5t18.5 -45.5t-18.5 -45.5t-45.5 -18.5z" />
    <glyph glyph-name="tupianjiazaishibai03" unicode="&#xe87d;" 
d="M567 204q4 3 6 9q11 20 -6 37l-232 232l229 229q11 10 11 23.5t-11 23.5q-9 10 -23 10h-349q-53 0 -90.5 -37.5t-37.5 -90.5v-576q0 -53 37.5 -90.5t90.5 -37.5h97q14 0 23 10l54 54l199 200l0.5 1.5t1.5 2.5zM272 0h-80q-26 0 -45 19t-19 45v576q0 26 19 45t45 19h271
l-198 -198q-17 -17 -6 -38q2 -5 6 -8q1 -1 1.5 -2.5t1.5 -1.5l229 -230zM832 768h-99q-14 0 -23 -10l-55 -54l-198 -198q-22 -24 3 -50l229 -230l-232 -233q-10 -10 -10 -23.5t10 -23.5t24 -10h351q53 0 90.5 37.5t37.5 90.5v576q0 53 -37.5 90.5t-90.5 37.5zM896 64
q0 -26 -19 -45t-45 -19h-274l199 200q11 11 11.5 26t-9.5 24l-232 232l222 222h83q26 0 45 -19t19 -45v-576z" />
    <glyph glyph-name="caiwufenxi" unicode="&#xe886;" 
d="M768 768h-64v96q0 13 -9.5 22.5t-22.5 9.5t-22.5 -9.5t-9.5 -22.5v-96h-320v96q0 13 -9.5 22.5t-22.5 9.5t-22.5 -9.5t-9.5 -22.5v-96h-64q-53 0 -90.5 -37.5t-37.5 -90.5v-640q0 -53 37.5 -90.5t90.5 -37.5h576q53 0 90.5 37.5t37.5 90.5v640q0 53 -37.5 90.5
t-90.5 37.5zM832 0q0 -26 -19 -45t-45 -19h-576q-26 0 -45 19t-19 45v640q0 27 19 45.5t45 18.5h576q26 0 45 -18.5t19 -45.5v-640zM697 589q9 9 9 22t-9 22t-22 9t-22 -9l-173 -173l-172 171q-9 9 -21.5 9t-21.5 -9t-9 -21.5t9 -21.5l183 -183v-21h-160q-13 0 -22.5 -9.5
t-9.5 -22.5t9.5 -22.5t22.5 -9.5h160v-128h-160q-13 0 -22.5 -9t-9.5 -22.5t9.5 -23t22.5 -9.5h160v-96q0 -13 9.5 -22.5t22.5 -9.5t22.5 9.5t9.5 22.5v96h160q13 0 22.5 9.5t9.5 23t-9.5 22.5t-22.5 9h-160v128h160q13 0 22.5 9.5t9.5 22.5t-9.5 22.5t-22.5 9.5h-160v20z
" />
    <glyph glyph-name="qingyewan" unicode="&#xe600;" 
d="M874 22q-74 -73 -169.5 -111.5t-192.5 -38.5t-192.5 38.5t-169.5 111.5q-65 66 -104 152q94 -42 196.5 -45t201 35t174.5 114t114 174.5t35 201t-45 196.5q86 -39 152 -104q73 -74 111.5 -169.5t38.5 -192.5t-38.5 -192.5t-111.5 -169.5v0zM498 386l-23 -37l-5 42l-42 10
l39 19l-4 42l30 -31l40 17l-20 -38l28 -32zM491 527l-126 60l-101 -96l18 138l-123 66l138 26l25 137l66 -123l139 18l-96 -101zM251 305l-34 -55l-8 64l-64 15l59 27l-5 64l45 -47l60 25l-31 -56l42 -49z" />
    <glyph glyph-name="yinzhuanqing" unicode="&#xe603;" 
d="M861 572l46 46q8 8 8 18.5t-8 18.5t-19 8t-18 -8l-46 -45q-8 -8 -8 -19t8 -19t19 -8t18 8zM599 675q11 0 18.5 7.5t7.5 18.5v63q0 11 -7.5 18.5t-18.5 7.5t-18.5 -7.5t-7.5 -18.5v-63q0 -11 7.5 -18.5t18.5 -7.5zM981 396h-63q-11 0 -18.5 -7.5t-7.5 -18.5t7.5 -18.5
t18.5 -7.5h63q11 0 19 7.5t8 18.5t-8 18.5t-19 7.5zM331 572q8 -8 18.5 -8t18.5 8t8 19t-8 19l-46 45q-7 8 -18 8t-19 -7.5t-8 -18.5t8 -19zM818 304q10 33 10 66q0 95 -67 162t-162 67q-51 0 -96.5 -21.5t-77.5 -58.5q-41 11 -84 11q-88 0 -163 -43.5t-118.5 -118.5
t-43.5 -163t43.5 -163t118.5 -118.5t163 -43.5q1 0 4 1h2v-1l313 1l1 -0.5t2 -0.5q99 0 169.5 70.5t70.5 170.5q0 54 -22.5 102t-62.5 81zM599 547q73 0 125 -51.5t52 -125.5q0 -18 -4 -35q-51 27 -109 27q-18 0 -36 -3q-51 95 -149 140q51 48 121 48zM663 -67h-6v0h-303v0
h-13q-113 0 -192.5 79.5t-79.5 192.5t79.5 192.5t192.5 79.5q87 0 157 -50t99 -129q32 11 66 11q78 0 133 -55t55 -133t-55 -133t-133 -55z" />
    <glyph glyph-name="rexiao" unicode="&#xe605;" 
d="M873 140v0v0v0zM512 797q-114 0 -209 -55.5t-150 -152.5t-55 -213q0 -44 8 -83v0l1 -1q0 -4 1 -8q3 -11 6 -20l1 -5l0.5 -1l0.5 -1q12 -39 27.5 -69.5t22 -38.5t9.5 -11v0v0q0 -1 0.5 -2l0.5 -1q6 -73 -16 -119q-3 -6 -3 -13q-2 -11 5 -20t18 -11q1 -1 4 -1h2q5 0 8 2
q21 4 58 20.5t60 32.5q93 -51 200 -51q112 0 207.5 55t151 150t55.5 206t-55.5 206t-151 150t-207.5 55zM512 29q-105 0 -194 57q-20 7 -36 -6q-27 -26 -59 -41q8 66 7 78q1 4 -1 17t-7 24q-44 59 -57 119l-1 2q-1 7 -4 23q-7 52 -7 74q0 100 47.5 184.5t128.5 133.5t177 49
h6q99 -2 181.5 -49.5t130 -129t47.5 -178.5t-48 -179t-131 -130t-180 -48zM401 477q-23 -1 -23 -23v-58h-85v58q-1 22 -22 23q-23 -1 -23 -23v-161q0 -21 23 -21q21 0 22 21v60h85v-60q0 -21 23 -21q21 0 23 21v161q-2 22 -23 23zM535 478q-91 -8 -98 -105q6 -97 98 -102v0
q91 5 98 103q-8 96 -98 104zM535 310q-49 2 -51 63q2 60 51 64q48 -4 52 -63q-3 -62 -52 -64zM755 475h-104q-16 -1 -18 -20q2 -22 18 -22h29v-140q0 -21 23 -21q21 0 23 21v140h29q19 0 21 22q-3 19 -21 20z" />
    <glyph glyph-name="yuyin" unicode="&#xe606;" 
d="M512 232q73 0 125 52t52 125v213q0 90 -50.5 142.5t-126.5 52.5q-30 0 -65 -16t-56 -36l-5.5 -5.5t-13 -17.5t-17 -30.5t-14 -45t-6.5 -60.5v-3v-5v-189q0 -73 52 -125t125 -52zM788 396v0v0zM767 426q-11 0 -18.5 -7.5t-8.5 -18.5q-6 -86 -72 -146t-155.5 -60t-156 60
t-73.5 146q-1 10 -8.5 16t-17.5 6t-18 -7.5t-8 -18.5q9 -100 79.5 -172t171.5 -82v-160q0 -13 9 -22t21.5 -9t21.5 9t9 22v160q99 10 170 82.5t80 171.5v0q0 11 -7.5 20.5t-18.5 9.5z" />
    <glyph glyph-name="duoyun" unicode="&#xe60b;" horiz-adv-x="1304" 
d="M1100 -128v0h-710h-1q-84 0 -143.5 59.5t-59.5 142.5q0 66 38 118t98 73q2 69 51 116.5t118 47.5q21 0 42 -5q44 79 123 126.5t173 47.5q91 0 168.5 -44.5t123 -121t47.5 -167.5q60 -21 97.5 -73t37.5 -117q0 -84 -59.5 -143.5t-143.5 -59.5zM650 720q-7 -12 -18.5 -16
t-21.5 1l-1 1q-10 6 -12 18t5 24l42 73q7 11 18.5 15.5t20.5 -1.5l2 -1q10 -5 12 -17.5t-5 -23.5zM457 747h-2q-11 0 -19 9.5t-8 23.5v83q0 14 8 23.5t19 9.5h2q11 0 19 -9.5t8 -23.5v-83q0 -14 -8 -23.5t-19 -9.5zM456 673q99 0 168 -72q-76 -44 -126 -115h-14
q-80 0 -142 -50.5t-77 -128.5q-42 60 -42 133q0 96 68.5 164.5t164.5 68.5zM302 705q-10 -5 -21.5 -1t-18.5 16l-42 73q-6 11 -4 23.5t11 17.5l2 1q10 6 21.5 1.5t18.5 -15.5l41 -73q7 -12 5 -24t-12 -18zM190 593q-6 -10 -18 -12t-24 5l-73 42q-11 6 -15.5 18t1.5 21l1 2
q5 9 17.5 11.5t23.5 -4.5l73 -42q12 -7 16 -18.5t-1 -21.5zM149 441v-2q0 -11 -9.5 -19t-23.5 -8h-83q-14 0 -23.5 8t-9.5 19v2q0 11 9.5 19t23.5 8h83q14 0 23.5 -8t9.5 -19zM148 294q12 7 24 5t18 -12l1 -1q5 -10 1 -21.5t-16 -18.5l-73 -42q-11 -7 -23.5 -5t-17.5 12
l-1 2q-6 9 -1.5 20.5t15.5 18.5z" />
    <glyph glyph-name="code1" unicode="&#xe60c;" 
d="M65 386h897h-897zM513 -63v896v-896zM92 820h358q11 -1 17.5 -7.5t8.5 -20.5t2.5 -23t0 -29t-0.5 -25v-191q0 -7 0.5 -25t0.5 -27t-1.5 -21.5t-6.5 -20t-13.5 -11t-25 -4t-39.5 1t-28 1.5h-190q-8 0 -27.5 -1t-29.5 -0.5t-24 2.5t-21 8.5t-9 16.5v349q8 21 28 27v0z
M141 741v-248h259v252h-258q-1 0 -1 -4v0zM573 820h359q23 -8 28 -31v-340q-6 -25 -26 -30q-10 -3 -25.5 -3.5t-36 1t-28.5 1.5h-184q-8 0 -29 -1.5t-37 -1t-26 3.5q-9 2 -14.5 10t-7 21.5t-2 24t0 29.5t0.5 26v178q0 8 -0.5 28.5t-0.5 30.5t2.5 23.5t9 20.5t17.5 9v0z
M623 741v-248h258v252h-257q-2 0 -1 -4v0zM259 669q27 4 46 -10.5t19 -38.5q1 -31 -25.5 -46t-52.5 -1q-20 9 -26 30.5t4.5 41t34.5 24.5v0zM740 669q45 8 60 -29q12 -32 -9 -56q-18 -21 -51 -16q-25 4 -35.5 27t-0.5 46t36 28v0zM448 -52h-355q-23 7 -29 28v348q7 21 24 25
q11 3 26 3.5t35.5 -0.5t28.5 -1h185q7 0 27.5 1t36.5 0.5t27 -3.5q10 -2 15.5 -10t7.5 -21.5t2.5 -23.5t-0.5 -29t-1 -25v-184q0 -7 1 -27.5t0 -30t-3 -23t-9.5 -20t-18.5 -7.5v0zM141 272v-249h259v252h-258q-1 0 -1 -3v0zM960 319v-97q-2 -8 -1.5 -52t-0.5 -53h-256v57
q-6 1 -39 1h-40q-2 -19 -1.5 -112.5t-0.5 -114.5h-47q-11 2 -18 9.5t-9.5 21t-2.5 24t0.5 30t0.5 27.5v179q0 8 -1 28.5t-0.5 36t3.5 25.5q1 5 4.5 9t9 6.5t9.5 3.5t13 2t13 1h15h15h175v-154h80q1 14 0.5 77.5t0.5 76.5q21 0 37.5 -0.5t27.5 -8t13 -23.5v0zM265 200
q29 3 47.5 -19.5t7.5 -50.5q-10 -26 -38.5 -31t-49.5 14t-12.5 51t45.5 36v0zM789 -52h-87q0 8 -0.5 46t1.5 44h86v-90v0zM960 38v-59q-5 -24 -29 -31h-62v46t1 44h90v0z" />
    <glyph glyph-name="code2" unicode="&#xe611;" 
d="M389 677q17 -14 17 -32.5t-17 -31.5l-252 -229l252 -231q17 -13 17 -31.5t-17 -32.5q-31 -31 -61 0l-328 295l328 293q30 31 61 0v0zM698 677l326 -293l-326 -295q-32 -31 -63 0q-33 33 0 64l254 231l-254 229q-33 31 0 64q31 31 63 0v0v0z" />
    <glyph glyph-name="code" unicode="&#xe612;" horiz-adv-x="1025" 
d="M984 345h-944q-17 0 -28.5 11.5t-11.5 27.5t11.5 27.5t28.5 11.5h944q16 0 27.5 -11.5t11.5 -27.5t-11.5 -27.5t-27.5 -11.5v0v0zM906 -128h-236q-17 0 -28.5 11.5t-11.5 28t11.5 28t28.5 11.5h236q16 0 27.5 11.5t11.5 27.5v197q0 16 11.5 27.5t28 11.5t28 -11.5
t11.5 -27.5v-197q0 -49 -34.5 -83.5t-83.5 -34.5v0v0zM315 -128h-197q-49 0 -83.5 34.5t-34.5 83.5v197q0 16 11.5 27.5t28 11.5t28 -11.5t11.5 -27.5v-197q0 -16 11.5 -27.5t27.5 -11.5h197q16 0 27.5 -11.5t11.5 -28t-11.5 -28t-27.5 -11.5v0v0zM39 542q-16 0 -27.5 11.5
t-11.5 27.5v197q0 49 34.5 83.5t83.5 34.5h197q16 0 27.5 -11.5t11.5 -28t-11.5 -28t-27.5 -11.5h-197q-16 0 -27.5 -11.5t-11.5 -27.5v-197q0 -16 -11.5 -27.5t-28.5 -11.5v0v0zM985 542q-17 0 -28.5 11.5t-11.5 27.5v197q0 16 -11.5 27.5t-27.5 11.5h-236
q-17 0 -28.5 11.5t-11.5 28t11.5 28t28.5 11.5h236q49 0 83.5 -34.5t34.5 -83.5v-197q0 -16 -11.5 -27.5t-27.5 -11.5v0v0z" />
    <glyph glyph-name="docss" unicode="&#xe613;" horiz-adv-x="1540" 
d="M1281 735q26 0 50 -10t41.5 -27.5t27.5 -41.5t10 -51v-372q0 -28 -10 -51t-27.5 -41t-41.5 -28t-50 -10h-1009q-27 0 -50.5 10t-41.5 28t-28 41t-10 51v372q0 27 10 51t28 41.5t41.5 27.5t50.5 10h1009zM536 276q36 29 50 84l-50 16q-10 -43 -33 -57.5t-60 -14.5
q-3 0 -19 1.5t-34 12.5t-33 35.5t-15 71.5q0 5 3.5 23.5t14.5 38t31.5 35.5t55.5 16q33 0 49.5 -14t29.5 -42l55 16q-14 47 -48 72q-35 26 -85 26q-44 0 -82 -20q-38 -22 -57 -60q-21 -39 -21 -92q0 -47 18 -90q17 -41 52 -64q33 -23 89 -23q53 0 89 29zM811 447
q-44 13 -62 23.5t-18 28.5q0 21 18 32.5t60 11.5q19 0 30.5 -3t19.5 -9.5t13 -16t11 -22.5l42 4q0 2 -2 18.5t-14 34t-36 32.5t-67 15q-45 0 -70.5 -11t-38.5 -26t-16.5 -30.5t-3.5 -25.5q0 -28 15.5 -46.5t36 -30t40 -17t27.5 -8.5q25 -7 40.5 -15t24 -15.5t11 -14
t2.5 -11.5v-18q0 -9 -5.5 -15t-18.5 -10t-40 -4q-32 0 -49.5 6.5t-25.5 16t-9 20.5t-1 21h-50q0 -16 2.5 -35.5t16 -37t42.5 -30t83 -12.5q15 0 33.5 2.5t34 12.5t26.5 30t11 57q0 7 -2 19t-13 26t-33.5 28t-64.5 25zM1153 447q-28 7 -43 12t-23 11t-9.5 12.5t-1.5 16.5
q0 21 16.5 31.5t57.5 10.5q20 0 30.5 -2.5t16 -8.5t9 -15.5t10.5 -22.5l51 4q0 2 -2.5 18.5t-14 34t-35.5 32.5t-67 15q-44 0 -70.5 -11t-39 -26t-16 -30.5t-3.5 -25.5q0 -28 15.5 -48t35.5 -33t39.5 -19.5t28.5 -8.5q29 -8 44 -14.5t21 -12.5t6.5 -11.5t0.5 -10.5
q0 -10 -1.5 -17t-7.5 -12.5t-18 -8.5t-31 -3q-32 0 -48.5 8.5t-23.5 18.5t-7.5 19t-0.5 12h-56q0 -4 3 -22.5t16.5 -39t42.5 -37t82 -16.5q15 0 33.5 4.5t34.5 16t26.5 30.5t10.5 51v19.5t-10 26.5t-33.5 27.5t-68.5 24.5z" />
    <glyph glyph-name="dohtml" unicode="&#xe614;" horiz-adv-x="1632" 
d="M1367 749q24 0 46 -9.5t38 -25.5t25.5 -37.5t9.5 -46.5v-342q0 -25 -9.5 -46t-25.5 -37.5t-38 -26t-46 -9.5h-1102q-25 0 -46.5 9.5t-38 26t-25.5 37.5t-9 46v342q0 25 9 46.5t25.5 37.5t38 25.5t46.5 9.5h1102zM503 620h-44v-136h-134v136h-45v-316h45v131h134v-131h44
v316zM771 618h-223v-47h89v-268h45v268h89v47zM1128 618h-70l-82 -231l-89 231h-70v-315h43v230l84 -230h53l87 226v-226h44v315zM1397 349h-135v268h-44v-314h179v46z" />
    <glyph glyph-name="github" unicode="&#xe615;" 
d="M942 384q0 -143 -84 -258t-216 -159q-16 -2 -23 4.5t-7 17.5v120q0 56 -30 81q33 4 59 10.5t53.5 22t46.5 38t30.5 60t11.5 86.5q0 69 -45 118q21 52 -5 116q-16 5 -46 -6.5t-53 -24.5l-21 -14q-53 15 -110 15t-110 -15q-9 6 -24 15.5t-47.5 22t-49.5 7.5
q-25 -64 -4 -116q-45 -49 -45 -118q0 -49 11.5 -86t30 -60t46 -38.5t53.5 -22t59 -10.5q-23 -20 -28 -59q-12 -5 -25.5 -8t-32.5 -3t-37.5 12.5t-31.5 35.5q-11 18 -28 29.5t-28 13.5l-12 2q-12 0 -16.5 -2.5t-3 -6.5t5 -8t7.5 -7l4 -3q13 -5 25 -21t18 -30l6 -13
q7 -21 25 -34.5t38.5 -17.5t39.5 -4t32 2l13 2v-50.5v-30.5q0 -11 -7 -17.5t-23 -4.5q-132 44 -216 159t-84 258q0 120 59 220.5t160 159.5t220 59t220 -59t160 -160t59 -220v0z" />
    <glyph glyph-name="hot" unicode="&#xe616;" 
d="M447 -48q-5 0 -10 2q-104 35 -170.5 120t-73.5 191q-1 3 -1 7q0 44 -6 83t-13 62t-16 41.5t-13 23.5t-6 8q-15 16 -6 35q9 20 31 19q97 -6 144 -38q29 -18 54 -68q13 39 20.5 91t9 94t0 86.5t-3 61.5t-2.5 25q-2 21 16 31.5t35 -1.5q10 -7 24 -18t50 -41t67.5 -60
t67.5 -71.5t59 -78.5q7 52 1 112q-2 22 17.5 31.5t36.5 -4.5q7 -7 17.5 -18.5t35 -49t42.5 -80.5t31.5 -113.5t11.5 -147.5q0 -94 -48 -176t-130 -129q-21 -12 -38 4.5t-6 37.5q16 31 16 63q1 48 -44 99.5t-108 95.5q13 -117 -18 -164q-8 -12 -22 -14t-25 7q-32 26 -66 46
q-12 6 -15.5 18.5t3 24.5t19 15.5t24.5 -3.5q17 -9 38 -24q7 63 -12 152q-5 20 11.5 32.5t34.5 2.5q16 -9 36 -21.5t60 -42.5t70 -61t54 -75t24 -85q78 84 78 198q4 162 -63 285q-8 -93 -47 -120q-13 -9 -28 -3.5t-20 20.5q-34 106 -221 260q11 -271 -69 -388
q-11 -17 -31 -14t-26 22q-9 30 -25.5 62t-31.5 41q-15 10 -49 18q31 -74 34 -179v-4q0 -91 56 -167.5t145 -105.5q13 -4 19 -16t1 -25q-7 -22 -30 -22z" />
    <glyph glyph-name="hotfill" unicode="&#xe617;" 
d="M757 696q-16 14 -35.5 4.5t-17.5 -31.5q5 -60 -1 -112q-23 37 -59 78.5t-67.5 71.5t-67.5 60t-50.5 41t-23.5 18q-17 12 -35 1.5t-16 -30.5q1 -8 2.5 -25.5t3 -61.5t0 -86.5t-9 -94.5t-20.5 -91q-26 50 -54 69q-47 31 -144 37q-21 1 -31 -19q-9 -19 6 -35q2 -2 6.5 -8
t13.5 -24t16 -41t13 -62t6 -83q0 -4 1 -7q6 -88 52.5 -169t120.5 -124q7 -4 16 -4v0h1q13 0 22.5 9t9.5 23q0 7 -4 14q-6 24 -6 61v4q-2 42 -11 77q12 -8 36.5 -29t27.5 -23q10 -8 24 -6t22 14q41 61 20 223q212 -142 209 -250q0 -7 -1 -17q-2 -22 18 -31.5t36 5.5
q110 105 110 245q2 77 -11.5 147.5t-32 113.5t-42.5 80.5t-34.5 49t-18.5 18.5z" />
    <glyph glyph-name="html5" unicode="&#xe618;" 
d="M755 555l10 100h-506l27 -305h350l-13 -131l-112 -30l-112 30l-8 80h-100l13 -158l207 -58h2v1l205 57l29 310h-368l-9 104h385v0zM110 823h804l-73 -822l-330 -92l-328 92z" />
    <glyph glyph-name="xinjian" unicode="&#xe619;" 
d="M662 666q-9 0 -16 6.5t-11.5 15.5t-6.5 18.5t-2 15.5v109h2q8 0 15 -1.5t17 -8t25 -19t37 -31.5q24 -22 38.5 -36.5t22 -24.5t9 -17.5t1.5 -12.5v-14h-131zM897 246q2 -7 3 -18t-9 -21q-4 -4 -7.5 -8t-6.5 -7t-6 -5l-76 75q6 4 12.5 10.5t10.5 9.5q11 10 23.5 8.5
t20.5 -5.5q9 -5 19 -16t16 -23v0zM531 5q4 12 6 21q4 11 7 17q7 16 20 28l14 15h-322q-21 0 -36 14.5t-15 36t15 36t36 14.5h405q8 0 15 -2q32 32 69 68l48 48v293h-131q-40 0 -68 27q-15 15 -25 35q-8 16 -12 33.5t-4 32.5v109h-342q-36 0 -61.5 -25.5t-25.5 -61.5v-663
q0 -36 25.5 -61.5t61.5 -25.5h316q2 5 4 11v0zM256 503h405q21 0 36 -15t15 -36t-15 -36t-36 -15h-405q-21 0 -36 15t-15 36t15 36t36 15zM256 345h405q21 0 36 -15t15 -36t-15 -35.5t-36 -14.5h-405q-21 0 -36 14.5t-15 35.5t15 36t36 15zM584 51l34 33q13 14 29.5 30.5
t31.5 32.5q39 38 87 85l75 -74l-148 -148q-13 -13 -21.5 -22t-9.5 -10q-4 -3 -9.5 -7t-10.5 -6.5t-16.5 -7t-23 -8t-22 -6t-16.5 -3.5q-10 -2 -13.5 2.5t-2.5 15.5q1 5 4 16l6 22l7 21q3 10 5 13q5 12 14 21v0v0zM584 51z" />
    <glyph glyph-name="iconziti" unicode="&#xe61a;" 
d="M654 171l-367 -1l-71 -169h159v-57h-311v57h55l377 822h33l387 -822h45v-57h-281v57h61l-87 170v0zM339 281h258l-117 238h-23l-118 -238v0zM339 281z" />
    <glyph glyph-name="link" unicode="&#xe61b;" 
d="M330.5 169q-12.5 0 -21.5 8.5t-9 21t9 21.5l364 366q8 9 20.5 9t21.5 -9t9 -21.5t-9 -20.5l-363 -367q-9 -8 -21.5 -8zM478 241q16 -70 -34 -120l-122 -117q-39 -40 -95 -40t-95.5 39.5t-39.5 95.5t39 95l119 122q39 40 95 40q16 0 36 -6l47 47q-40 19 -83 19
q-81 0 -138 -57l-118 -122q-57 -57 -57 -138t57 -138t138 -57t138 57l121 117q43 43 53 100.5t-13 110.5zM935 807q-57 57 -138 57t-138 -57l-121 -117q-44 -45 -54 -107t17 -116l47 46q-11 34 -2.5 71t34.5 63l122 117q39 40 95 40t95.5 -39.5t39.5 -95.5t-39 -95
l-121 -121q-40 -40 -96 -40q-22 0 -26 1l-48 -48q32 -13 74 -13q81 0 138 57l121 121q57 57 57 138t-57 138z" />
    <glyph glyph-name="linkhor" unicode="&#xe61c;" 
d="M635 411q0 11 -7.5 18t-18.5 7h-184q-11 0 -18.5 -7t-7.5 -18t7.5 -18.5t18.5 -7.5h184q11 0 18.5 7.5t7.5 18.5v0zM131 337q-20 0 -28.5 23t-8.5 51t8.5 50.5t28.5 22.5l344 6q-15 27 -38 47.5t-49 20.5h-257q-44 0 -79 -38.5t-35 -83.5v-51q0 -45 35 -83t79 -38h257
q50 0 88 70l-345 3v0zM1017 385v51q0 45 -35.5 83.5t-78.5 38.5h-257q-51 0 -87 -68l344 -6q19 0 28 -22.5t9 -50.5t-9 -51t-28 -23l-346 -3q15 -28 38.5 -48.5t49.5 -21.5h258q43 0 78.5 38t35.5 83v0zM1017 385z" />
    <glyph glyph-name="pc1" unicode="&#xe61d;" 
d="M544.5 830q-112.5 0 -208 -55.5t-151 -151t-55.5 -208t55.5 -208t151 -151t208 -55.5t208 55.5t151 151t55.5 208t-55.5 208t-151 151t-208 55.5zM544 18q-108 0 -199.5 53t-145 145t-53.5 200t53.5 199.5t145 145t199.5 53.5t200 -53.5t145 -145t53 -199.5t-53 -200
t-145 -145t-200 -53zM236 629v-397h296v-93h-85v-18h191v18h-86v93h296v397h-612zM829 324h-574v287h574v-287z" />
    <glyph glyph-name="pc" unicode="&#xe61e;" horiz-adv-x="1104" 
d="M8 888v0v0zM1024 326v471q0 8 -5.5 13t-12.5 5h-907q-8 0 -13.5 -5t-4.5 -13v-471q0 -8 5 -13.5t13 -5.5h907q7 0 12.5 5.5t5.5 13.5zM1097 797v-617q0 -37 -27 -63.5t-64 -26.5h-309q0 -21 9.5 -44t18.5 -40.5t9 -24.5q0 -15 -11 -25.5t-26 -10.5h-290q-15 0 -25.5 10.5
t-10.5 25.5q0 8 9 25t18 39.5t9 44.5h-308q-38 0 -64.5 26.5t-26.5 63.5v617q0 38 26.5 64.5t64.5 26.5h907q37 0 64 -26.5t27 -64.5v0z" />
    <glyph glyph-name="phone1" unicode="&#xe61f;" 
d="M942 158q-40 37 -77 61q-52 37 -85 51q-51 26 -70 26q-28 0 -52 -30q-13 -20 -23 -45t-18 -34q-21 6 -70 38q-57 41 -105 85q-36 37 -85 105q-33 49 -38 70q4 2 34 18q33 13 45 23q30 22 30 52q0 23 -26 70q-12 26 -51 85q-26 37 -61 77q-41 41 -67 41q-47 0 -114 -87
q-14 -18 -27 -39t-26.5 -56.5t-13.5 -64.5q0 -70 75 -194q71 -116 177 -225l21 -21v0q114 -111 225 -177q29 -20 78 -43v0q5 -2 11 -2q11 0 19 8t8 19q0 20 -17 26q-28 13 -71 39q-108 66 -213 169l-21 21q-103 106 -169 213q-67 106 -67 164q0 53 54 124q30 38 45 51
q20 18 27 18q11 -5 34.5 -29.5t52.5 -69.5q32 -46 45 -74q18 -32 18 -43q-4 -5 -10 -9q-4 -2 -15.5 -7t-16.5 -8q-19 -8 -41 -19q-28 -18 -28 -46q0 -33 49 -104q46 -68 92 -113v0q50 -49 113 -92q74 -49 105 -49v0q26 0 45 28q3 4 6 10.5t7 16t6 14.5q8 20 15 31q7 5 11 7
v0q11 0 43 -18q53 -30 74 -45q44 -31 69.5 -54.5t29.5 -32.5q-6 -12 -18 -28q-17 -22 -51 -45q-47 -34 -87 -47v0q-17 -7 -17 -25q0 -12 8 -20t19 -8q4 0 6 2v0q3 0 5 2v0q50 17 102 55q27 20 57 53.5t30 62.5q0 28 -40 68z" />
    <glyph glyph-name="phone" unicode="&#xe620;" 
d="M369 66v-1q-4 0 -8.5 -0.5t-5.5 -0.5h-3q-52 0 -89 36.5t-38 88.5q-2 53 34 91q37 39 89 40h2h2q40 0 74 -24q46 -16 92 45t19 95q-9 7 -18 17q-2 1 -3 3q-31 35 -33 80q-1 53 35 91t89 40h1.5h2.5q44 0 78.5 -28t44.5 -71q6 -18 8 -43t-1.5 -68t-28 -100.5t-68.5 -116.5
q-41 -55 -85 -93t-81.5 -54t-62.5 -21.5t-46 -5.5zM365 130q9 0 20.5 1t36.5 9t49 22.5t57.5 44.5t64.5 71q38 52 59.5 101.5t24 85.5t1 54.5t-5.5 31.5q-5 23 -22.5 37.5t-39.5 14.5q-27 -1 -45 -20t-18 -45q1 -23 17 -40v-1q6 -6 12 -10q4 -3 6 -6q10 -10 16.5 -24
t11 -36.5t-5.5 -53.5t-35 -64q-55 -74 -124 -74q-24 0 -47 9q-4 2 -8 5q-17 14 -38 14q-28 -1 -46 -20t-17 -45q0 -26 18.5 -44t44.5 -18v0q1 1 3 1q6 0 10 -1zM512 -67q-91 0 -174 35q-12 5 -17 17t0 24.5t17.5 17.5t24.5 0q71 -30 149 -30q104 0 192.5 51.5t140 140
t51.5 192.5t-51.5 192.5t-140 140t-192.5 51.5t-192.5 -51.5t-140 -140t-51.5 -192.5q0 -111 59 -204q7 -11 4 -24t-14.5 -20t-24.5 -4t-20 14q-68 109 -68 238q0 91 35.5 174t95.5 143t143 95.5t174 35.5t174 -35.5t143 -95.5t95.5 -143t35.5 -174t-35.5 -174t-95.5 -143
t-143 -95.5t-174 -35.5z" />
    <glyph glyph-name="qq1" unicode="&#xe621;" 
d="M332 402l-1 3l-1 4v2v9v3l1 4l2 4l1 4l3 5l3 4v3v3v4l2 4l1 5l1 2l1 3l2 2l1 2v11l1 5l1 7l2 8l2 8l2 4l1 5l2 5l2 5l3 5l2 5l3 5l4 6l2 3l1 2l4 6l4 5l5 6l5 6l5 6l6 5l6 6l5 4l5 4l5 4l6 3l5 3l6 3l7 3l7 2l6 2l7 2l7 2l8 2l7 1l15 2h8h23l8 -1l8 -1l7 -1l8 -1l8 -2
l7 -2l8 -2l7 -3l7 -3l8 -3l7 -3l6 -4l7 -4l5 -4l3 -2l3 -2l5 -4l4 -5l5 -4l4 -5l4 -5l4 -5l3 -5l3 -4l3 -6l2 -5l5 -10l2 -5l2 -5l1 -5l2 -5l1 -4l1 -5l3 -9l1 -7l1 -8l1 -6l1 -9l1 -1l1 -2l3 -5l1 -3l2 -3l2 -4l2 -4l1 -5l2 -4l1 -5v-3v-3v-2v-3v-3l-1 -3l-1 -6l-2 -3
l-1 -4v-1l1 -1l1 -2l7 -10l6 -8l2 -5l4 -6l3 -6l3 -6l4 -8l4 -8l2 -5l2 -5l2 -5l1 -5l2 -5l1 -5l2 -9l1 -9l1 -8v-12l-1 -4v-7l-2 -7l-2 -5v-3l-2 -3l-1 -2l-1 -2l-1 -2l-2 -2l-2 -1l-1 -2h-2l-2 -1l-1 -1h-2l-2 1l-2 1l-1 1l-2 1l-1 1l-1 1l-3 3l-2 4l-3 3l-2 3l-2 4l-3 6
l-3 6v0h-1l-1 -1l-1 -1l-1 -2l-2 -7l-4 -8l-4 -11l-3 -5l-4 -6l-4 -6l-4 -6l-2 -3l-3 -3l-6 -6v0l1 -1l3 -2l13 -6l6 -3l5 -3l5 -4l5 -4l2 -2l2 -2l2 -2l1 -3l1 -2l1 -2v-3l1 -2l-1 -2v-2v-2l-1 -1l-1 -2v-1l-3 -3l-2 -3l-2 -2l-1 -1l-3 -3l-4 -2l-5 -2l-4 -2l-5 -2l-3 -1
l-2 -1l-6 -1l-6 -1l-6 -2l-7 -1h-7l-7 -1h-22l-8 1h-7l-8 1l-8 1l-8 1l-8 2l-8 2l-8 2l-7 3l-8 2l-4 2l-4 1l-2 1h-3h-6l-8 1h-3l-5 1l-3 -3l-5 -3l-6 -2l-6 -4l-4 -2l-4 -1l-9 -4l-5 -1l-5 -2l-7 -1h-4l-5 -1h-5l-6 -1h-23l-13 1l-13 1l-6 1l-13 2l-6 1l-6 2l-5 1l-5 2
l-5 2l-5 2l-4 2l-3 3l-2 2l-1 1l-2 2l-1 2l-1 1l-1 2l-1 3l-1 2v2v2v2v3l1 2v4v2l1 3l1 2l1 4l2 1l1 1l2 3l2 2l2 1l1 1l3 1l2 1l3 2l3 1h3l3 1l4 1h4h4l1 1v0h1v1l-1 1l-2 1l-6 5l-4 3l-4 4l-5 4l-4 6l-6 6l-2 3l-2 4l-2 4l-3 4l-2 5l-2 4l-2 5l-2 6l-2 5l-1 6h-1v0l-1 1v0
l-1 -1h-1v-1v-1l-1 -2l-1 -1l-2 -5l-2 -3l-2 -2l-2 -3l-3 -4l-2 -3l-3 -2l-3 -3l-3 -2l-4 -2l-3 -2l-4 -1h-4h-1h-1l-1 2l-1 1l-1 3l-1 2l-1 3l-1 3l-1 3l-1 7v4v12v10l1 5l1 5l1 5l1 5l2 6l2 6l2 6l2 5l3 6l3 6l3 6l4 6l4 5l4 7l4 4l4 5l5 5l2 2l3 3l4 3l4 4l6 5l5 4z
M511 -63q-91 0 -174 35q-80 34 -142 96t-96 142q-35 84 -35 175t35 174q34 80 96 142t142 96q83 35 174 35t175 -35q80 -34 142 -96t96 -142q35 -83 35 -174t-35 -175q-34 -80 -96 -142t-142 -96q-84 -35 -175 -35v0zM511.5 806q-114.5 0 -211.5 -56.5t-153.5 -153.5
t-56.5 -211.5t56.5 -211.5t153.5 -153.5t211.5 -56.5t211.5 56.5t153.5 153.5t56.5 211.5t-56.5 211.5t-153.5 153.5t-211.5 56.5z" />
    <glyph glyph-name="qq4" unicode="&#xe622;" 
d="M512 832q-91 0 -174 -35.5t-143 -95.5t-95.5 -143t-35.5 -174t35.5 -174t95.5 -143t143 -95.5t174 -35.5t174 35.5t143 95.5t95.5 143t35.5 174t-35.5 174t-95.5 143t-143 95.5t-174 35.5v0zM759 244q-9 -7 -22.5 0.5t-28.5 27.5q-12 -33 -32 -62q45 -16 45 -41
q0 -22 -34 -37.5t-82 -15.5q-58 0 -93 21q-34 -21 -93 -21q-48 0 -81.5 15.5t-33.5 37.5q0 25 44 41q-19 28 -32 62q-14 -20 -27.5 -27.5t-22.5 -0.5q-12 11 -8 45.5t21 71.5q9 17 18 31q2 109 64.5 185t150.5 76v0q88 0 150.5 -76t65.5 -185q9 -14 17 -31q17 -37 21.5 -71
t-7.5 -46v0z" />
    <glyph glyph-name="qq" unicode="&#xe623;" 
d="M156 435q-5 11 -5 30q0 11 6 28.5t14 25.5q-1 12 4 29.5t13 24.5q0 80 52 164.5t124 119.5q80 38 185 38q76 0 152 -32q27 -11 50.5 -26.5t41 -33t31 -39t24.5 -41.5t18 -48t14.5 -51.5t12.5 -55.5l1 -3q32 -47 32 -85q0 -8 -5.5 -23.5t-5.5 -21.5v-2q0 -2 2 -3t1 -1
q44 -65 69.5 -122.5t24.5 -118.5q0 -25 -11 -57.5t-32 -32.5q-5 0 -11 4t-10 10.5t-11 14.5t-9 15t-7.5 15t-5.5 10q-1 1 -2 1l-3 -3q-34 -87 -75 -127q12 -11 35.5 -21.5t38.5 -23.5t21 -38q-1 -2 -2 -9t-5 -10q-36 -55 -172 -55q-30 0 -62.5 5t-56 11t-59.5 17q-9 3 -13 4
q-8 2 -26.5 3t-22.5 0q-24 -25 -73 -36.5t-96 -11.5q-20 0 -39.5 1.5t-53 5.5t-57 11t-43 23.5t-18.5 35.5q0 24 6 34t24 28q6 1 22.5 7.5t28.5 6.5q2 0 8 2q1 1 1 2l-1 2q-28 6 -61.5 59t-41.5 90l-3 1q-2 0 -7 -11q-11 -24 -31 -42.5t-44 -21.5h-1q-2 0 -3 2t-3 3
q-13 32 -13 58q0 157 144 265v0z" />
    <glyph glyph-name="servicefill" unicode="&#xe624;" 
d="M609 224q-37 0 -69 4q-13 1 -21 11.5t-6.5 23.5t11.5 21.5t23 6.5q70 -7 139.5 3t83.5 40q6 12 18.5 16.5t24.5 -1t16.5 -18t-1.5 -24.5q-40 -83 -219 -83zM896 256q-13 0 -22.5 9.5t-9.5 22.5v110l-43 16q-21 7 -21 30q0 119 -84.5 203.5t-203.5 84.5t-203.5 -84.5
t-84.5 -203.5q0 -17 -13 -26l-19 -14v-116q0 -13 -9.5 -22.5t-22.5 -9.5t-22.5 9.5t-9.5 22.5v133q0 16 13 26l19 13q7 140 109 238t243 98q139 0 240.5 -95.5t110.5 -234.5l44 -15q21 -8 21 -30v-133q0 -13 -9.5 -22.5t-22.5 -9.5zM640 112v10q48 37 64 73q-19 -3 -88 -3
q-67 0 -76 1q-26 3 -43 25t-14 49q3 26 24 42.5t47 13.5q55 -5 106 -0.5t75 14.5q1 21 1 84q0 102 -58 160t-158 61h-20q-100 -2 -156.5 -61t-56.5 -161q0 -35 0.5 -57.5t6 -61.5t15 -67t29 -59.5t46.5 -52.5v-10q-100 -15 -163 -53t-63 -89q0 -13 9.5 -23.5t23.5 -10.5h628
q13 0 26 10.5t13 23.5q0 51 -60 89t-158 53z" />
    <glyph glyph-name="zengsong" unicode="&#xe627;" 
d="M738 531v0h-0.5t-0.5 0.5v0.5q-7 6 -16 6h-1h-2h-37l25 41q6 8 3.5 17.5t-11 14.5t-18.5 2t-16 -12l-34 -56q-2 -2 -3 -7h-13q-2 5 -3 7l-35 56q-5 9 -15 12t-18.5 -2t-11 -14.5t3.5 -17.5l25 -41h-49h-1h-1q-9 0 -16 -6l-1 -1v0q-7 -7 -7 -15v-0.5v-0.5v-1v-127v-1v-1
v-1v-1q0 -9 7.5 -15.5t18.5 -6.5h207q11 0 19 6.5t8 15.5v2v2v127v1v1q0 8 -7 15zM591 405h-58v49q0 -10 7.5 -16.5t17.5 -6.5t17.5 7t7.5 16.5t-7.5 16t-17.5 6.5t-17.5 -6.5t-7.5 -16.5v40h58v-89zM697 405h-58v89h58v-89zM721 314q0 9 -8 15.5t-19 6.5l-158 1
q-10 0 -17.5 -5.5t-8.5 -13.5q-3 -5 -3 -11v-127v-4v-3q0 -9 7.5 -15.5t18.5 -6.5l158 -1q21 0 26 17q4 6 4 13v127q0 2 -1 5q1 1 1 2zM672 195h-117v32h117v-32zM672 272h-117v20l117 -1v-19zM668 431q10 0 17.5 6.5t7.5 16.5t-7.5 16.5t-17.5 6.5t-17.5 -6.5t-7.5 -16.5
t7.5 -16.5t17.5 -6.5zM311 270q8 0 14 6t6 14v256h83v-256q0 -8 6 -14t14 -6t14 6t6 14v273l-0.5 0.5t-0.5 1t0.5 1l0.5 0.5q0 9 -6 14.5t-14 5.5h-123q-8 0 -14 -5.5t-6 -14.5v-0.5v-1v-1v-0.5v-273q0 -8 6 -14t14 -6zM388 296q-1 1 -1.5 1t-0.5 1q5 22 6 38v172
q0 8 -5.5 14t-14 6t-14.5 -6t-6 -14v-171q0 -3 -1 -11t-6 -27t-12.5 -37t-21.5 -38t-31 -33q-7 -4 -8.5 -12.5t3.5 -14.5q6 -9 16 -9q7 0 12 4q44 32 69 94l78 -91q6 -7 15 -7q7 0 13 5t6.5 13.5t-4.5 14.5zM511 816q-88 0 -168.5 -34.5t-138.5 -92.5t-92.5 -138.5
t-34.5 -168.5t34.5 -168.5t92.5 -138.5t138.5 -92.5t168.5 -34.5t168.5 34.5t138.5 92.5t92.5 138.5t34.5 168.5t-34.5 168.5t-92.5 138.5t-138.5 92.5t-168.5 34.5zM511.5 4q-102.5 0 -190 50.5t-138 137.5t-50.5 189.5t50.5 190t138 138t189.5 50.5t189.5 -50.5t138 -138
t50.5 -190t-50.5 -189.5t-137.5 -137.5t-189.5 -50.5z" />
    <glyph glyph-name="wuliu1" unicode="&#xe629;" 
d="M527.5 831q-116.5 0 -216 -57.5t-157 -156.5t-57.5 -216t57.5 -216.5t157 -157t216 -57.5t216 57.5t157 157t57.5 216.5t-57.5 216t-157 156.5t-216 57.5zM527.5 25q-101.5 0 -188 50.5t-137 137t-50.5 188t50.5 188t137 137t188 50.5t188 -50.5t137 -137t50.5 -188
t-50.5 -188t-137 -137t-188 -50.5zM399 390q4 -5 10 -6v0q2 -1 3 -1q9 -1 15 6l71 85q5 5 4.5 12t-6 11.5t-12.5 4t-11 -5.5l-61 -72l-27 27q-4 6 -11 7t-12.5 -3.5t-6.5 -11.5t3 -12zM653.5 337q-31.5 0 -53.5 -22.5t-22 -53.5t22 -53.5t53.5 -22.5t53.5 22.5t22 53.5
t-22 53.5t-53.5 22.5zM653.5 225q-14.5 0 -25 10.5t-10.5 25.5t10.5 25.5t25 10.5t25 -10.5t10.5 -25.5t-10.5 -25.5t-25 -10.5zM779 426q-1 1 -1 2l-47 60q-16 21 -44 34.5t-53 13.5h-50v15q0 17 -12 29.5t-30 12.5h-245q-8 0 -14 -6t-6 -14v-292v0v-1v0q0 -8 6 -14t14 -6
h29q8 0 14 6t6 14t-6 14t-14 6h-9v253h225q2 0 2 -2v-123q0 -18 12.5 -30.5t30.5 -12.5l189 1q2 0 2 -2v-90q0 -2 -2 -2h-22q-9 0 -14.5 -6t-5.5 -14t5.5 -14t14.5 -6h22q17 0 29.5 12.5t12.5 29.5v90q0 16 -11 28t-28 14zM587 425q-3 0 -3 3v68h50q16 0 35.5 -9.5
t29.5 -22.5l30 -38zM430.5 337q-31.5 0 -53.5 -22.5t-22 -53.5t22 -53.5t53.5 -22.5t53.5 22.5t22 53.5t-22 53.5t-53.5 22.5zM430.5 225q-14.5 0 -25 10.5t-10.5 25.5t10.5 25.5t25 10.5t25 -10.5t10.5 -25.5t-10.5 -25.5t-25 -10.5zM550 300h-19q-8 0 -14 -6t-6 -14t6 -14
t14 -6h19q8 0 14 6t6 14t-6 14t-14 6z" />
    <glyph glyph-name="tiptingzhi" unicode="&#xe630;" horiz-adv-x="1025" 
d="M516 126l14 -14l70 69l-15 14zM0 -128h1023v1023zM547 95l-13 -13l-43 42l96 96l43 -42l-14 -14l-5 5l-69 -69zM484 198l7 19q18 -5 34 -12l59 59l12 -12l-132 -132l-12 12l58 58zM589 -63l-110 110q8 -26 13 -50q-12 5 -22 10q-16 69 -54 131l18 11q17 -31 29 -60
l139 -139zM672 25q-8 -9 -24 -24q-8 5 -18 12q14 11 24 21q11 11 -1 24l-24 24l-49 -50l-13 12l101 101l12 -12l-37 -38l27 -27q23 -23 2 -43zM676 149l-18 18l-112 -112l17 -18l-13 -14l-30 30l139 140l30 -30zM748 125l-16 15l34 34l-122 122l17 16l121 -122l47 47
l-157 157l16 16l56 -56l64 64l16 -15l-64 -64l85 -86l75 74l15 -15z" />
    <glyph glyph-name="vip" unicode="&#xe631;" 
d="M512 -64q-91 0 -174 35.5t-143 95.5t-95.5 143t-35.5 174q0 185 131.5 316.5t316.5 131.5q91 0 174 -35.5t143 -95.5t95.5 -143t35.5 -174t-35.5 -174t-95.5 -143t-143 -95.5t-174 -35.5zM512 768q-159 0 -271.5 -112.5t-112.5 -271.5q0 -104 51.5 -192.5t140 -140
t192.5 -51.5t192.5 51.5t140 140t51.5 192.5t-51.5 192.5t-140 140t-192.5 51.5zM416 158q-7 0 -14 3q-18 9 -18 29v322h-64q-13 0 -22.5 9.5t-9.5 22.5t9.5 22.5t22.5 9.5h96q13 0 22.5 -9.5t9.5 -22.5v-286l232 190h-8q-13 0 -22.5 9.5t-9.5 22.5t9.5 22.5t22.5 9.5h97
q23 0 30.5 -21t-10.5 -36l-353 -289q-9 -8 -20 -8z" />
    <glyph glyph-name="windows" unicode="&#xe633;" 
d="M181 389q57 23 103.5 31.5t83 1.5t62 -18t55.5 -32l-80 -273q-31 21 -55 32.5t-61 19t-83.5 -0.5t-103.5 -32l78 270zM526 346q31 -20 55 -31.5t60 -19t82.5 -1t104.5 26.5l-76 -263q-57 -24 -103.5 -32t-83.5 -1t-61.5 18.5t-55.5 32.5zM498 422q-38 26 -72.5 40
t-77.5 14q-62 1 -155 -38l79 272q57 24 103.5 32t83.5 1t62 -18.5t55 -32.5zM922 646q-57 -24 -103.5 -32t-83.5 -1t-62 18.5t-55 32.5l-79 -272q31 -21 57 -32.5t63 -19t83.5 1t101.5 33.5z" />
    <glyph glyph-name="anzhuo" unicode="&#xe635;" 
d="M839.5 551q-22.5 0 -38.5 -16t-16 -39v-216q0 -23 16 -39.5t38.5 -16.5t38.5 16.5t16 39.5v216q0 23 -16 39t-38.5 16zM182.5 551q-22.5 0 -38.5 -16t-16 -39v-216q0 -23 16 -39.5t38.5 -16.5t38.5 16.5t16 39.5v216q0 23 -16 39t-38.5 16zM270 550v-395
q0 -18 12.5 -30.5t29.5 -12.5h49v-120q0 -23 16 -39.5t38.5 -16.5t38.5 16.5t16 39.5v120h84v-120q0 -23 16 -39.5t39 -16.5t38.5 16.5t15.5 39.5v120h49q18 0 30 12.5t12 30.5v395h-484zM626 754l45 65q5 7 -1.5 11.5t-11.5 -2.5l-46 -68q-48 19 -101 19t-101 -19l-46 68
q-5 7 -11 2.5t-2 -11.5l45 -65q-54 -25 -88.5 -70t-38.5 -99h484q-4 54 -38.5 99t-88.5 70zM409 652q-11 0 -19 8t-8 19t8 18.5t19 7.5t19 -7.5t8 -18.5t-8 -19t-19 -8zM617 652q-11 0 -19 8t-8 19t8 18.5t19 7.5t18.5 -7.5t7.5 -18.5t-7.5 -19t-18.5 -8z" />
    <glyph glyph-name="bangzhu1" unicode="&#xe636;" 
d="M114 783v0v-798q0 -23 16.5 -39.5t39.5 -16.5h769q-12 0 -20.5 -8.5t-8.5 -20.5v968q0 -12 8.5 -20.5t20.5 -8.5h-769q-23 0 -39.5 -16.5t-16.5 -39.5v0v0v0v0v0v0v0v0v0zM57 783q0 46 33 79.5t80 33.5h769q12 0 20 -8.5t8 -19.5v-968q0 -11 -8.5 -19.5t-19.5 -8.5h-769
q-47 0 -80 33t-33 80v798v0v0v0v0v0v0v0v0zM512 366v182v348l57 -57h-314q13 0 21 8t8 20v-503v0q-5 17 -22.5 26.5t-33.5 3.5v1l142 94q32 20 64 -1l135 -92v-2q-17 6 -34 -3.5t-22 -25.5l-1 1v0v0v0v0v0v0v0v0v0zM228 867q0 12 8 20.5t19 8.5h314v-348v-192
q0 -12 -7 -15.5t-16 2.5l-144 98l-150 -98q-10 -7 -17 -3t-7 16v511v0v0v0v0v0v0v0v0zM114 -14q0 -24 16.5 -40.5t39.5 -16.5h769q-12 0 -20.5 -8.5t-8.5 -20.5v172q0 -12 8.5 -20.5t20.5 -8.5h-769q-23 0 -39.5 -17t-16.5 -40v0v0v0v0v0v0v0v0zM57 -14q0 47 33 80.5
t80 33.5h769q12 0 20 -8.5t8 -19.5v-172q0 -12 -8.5 -20t-19.5 -8h-769q-47 0 -80 33t-33 81v0v0v0v0v0v0v0v0z" />
    <glyph glyph-name="bangzhu2" unicode="&#xe637;" 
d="M512 -20q-110 0 -203 54t-147 147t-54 203t54 203t147 147t203 54t203 -54t147 -147t54 -203t-54 -203t-147 -147t-203 -54zM466 107q16 -16 41 -16q24 0 42 16q17 17 17 42t-17 41q-16 16 -42 16t-41 -16q-18 -16 -18 -41t18 -42zM647 635q-48 43 -127 43
q-88 0 -139 -52q-52 -51 -52 -139h86q0 54 22 83q24 34 79 34q43 0 67 -24q24 -25 24 -66q0 -31 -22 -59l-14 -15q-75 -67 -92 -100q-15 -31 -15 -77v-14h86v14q0 31 13 54q11 21 33 41q57 49 69 63q30 40 30 99q0 72 -48 115z" />
    <glyph glyph-name="bangzhu3" unicode="&#xe638;" horiz-adv-x="1027" 
d="M1024 384q0 -104 -40.5 -199t-109 -163.5t-163.5 -109t-199 -40.5t-199 40.5t-163.5 109t-109 163.5t-40.5 199t40.5 199t109 163.5t163.5 109t199 40.5t199 -40.5t163.5 -109t109 -163.5t40.5 -199zM512 803q-114 0 -210.5 -56t-152.5 -152.5t-56 -210.5t56 -210.5
t152.5 -152.5t210.5 -56t210.5 56t152.5 152.5t56 210.5t-56 210.5t-152.5 152.5t-210.5 56zM558 256h-93v25q0 45 14.5 74t59.5 65t54 48q13 18 13 39q0 30 -24 51t-64 21q-39 0 -65 -22t-36 -67l-94 11q4 65 55.5 110.5t135.5 45.5q88 0 140 -46t52 -107q0 -34 -19 -64
t-82 -82q-33 -27 -40.5 -43.5t-6.5 -58.5zM465 119v102h102v-102h-102z" />
    <glyph glyph-name="baocun1" unicode="&#xe63a;" 
d="M867 -65h-710l-5 2q-62 11 -83 70q0 1 -5 21v710l2 5q12 67 79 85l12 3h610q31 -7 64 -38q45 -44 88 -88q34 -35 41 -66v-611l-2 -5q-12 -67 -79 -85q-2 0 -12 -3zM512 -30h305q40 0 40 39v335q0 39 -39 39h-612q-39 0 -39 -38v-336q0 -8 1 -12q7 -27 39 -27h305z
M494 486h218q41 0 41 41v229q0 41 -41 41h-435q-41 0 -41 -41v-229q0 -41 41 -41h217zM582 762h101v-240h-101v240z" />
    <glyph glyph-name="baocun2" unicode="&#xe63b;" 
d="M742 835h-660q-8 0 -13 -5.5t-5 -12.5v-859q0 -7 5 -12t13 -5h858q8 0 13 5t5 12v664l-216 213v0zM176 700q0 7 5 12t12 5h441q7 0 12 -5t5 -12v-104q0 -7 -5 -12t-12 -5h-441q-7 0 -12 5t-5 12v104zM846 69q0 -7 -5 -12t-12 -5h-636q-7 0 -12 5t-5 12v312q0 7 5 12t12 5
h636q7 0 12 -5t5 -12v-312zM789 347q0 6 -4 10t-10 4h-84q-5 0 -9.5 -4t-4.5 -10v-83q0 -6 4.5 -10t9.5 -4h84q6 0 10 4t4 10v83z" />
    <glyph glyph-name="baocun3" unicode="&#xe63c;" 
d="M950 730q-8 8 -19 8t-19 -8l-417 -422l-209 211q-8 8 -19 8t-18.5 -8t-7.5 -19t7 -19l228 -231q8 -8 19 -8t19 8l436 442q8 8 8 19t-8 19zM840 354q-11 0 -19 -8t-8 -19v-244q0 -23 -16 -39t-38 -16h-589q-22 0 -38 16t-16 39v597q0 23 16 38.5t38 15.5h482v0v0
q12 0 19.5 8t7.5 19.5t-7.5 19.5t-19.5 8v0v0h-535q-23 0 -39 -16t-16 -39v-706q0 -22 16 -38t39 -16h695q23 0 39 16t16 38v299q0 11 -8 19t-19 8z" />
    <glyph glyph-name="baocun" unicode="&#xe63d;" 
d="M958 -63h-893v895h706l1 -2l186 -186v-707zM75 -52h873v691l-181 183h-692v-874zM748 426h-471v405h471v-405zM287 436h451v384h-451v-384zM676 529h-71v223h71v-223zM615 539h51v203h-51v-203zM478 70h384v-10h-384v10zM478 170h384v-10h-384v10z" />
    <glyph glyph-name="bianji1" unicode="&#xe63f;" 
d="M324 237l42 -42l102 37l-107 107zM513.5 833q-91.5 0 -174.5 -35.5t-143.5 -96t-96 -143.5t-35.5 -174.5t35.5 -174.5t96 -143t143.5 -95.5t174.5 -35.5t174.5 35.5t143 95.5t95.5 143t35.5 174.5t-35.5 174.5t-95.5 143.5t-143 96t-174.5 35.5zM491 209v1q-3 -2 -5 -3
l-206 -75q-9 -3 -16 3q-7 7 -3 16l75 206q1 2 3 5h-1l186 186l37 -37l-146 -145q-3 -4 -3 -9t3.5 -8.5t8.5 -3.5t8 4l146 145l45 -45l-145 -145q-8 -8 0 -17q4 -3 9 -3t8 3l145 145q21 -22 37 -37zM751 470l-58 -58l-64.5 64.5l-87.5 87.5l58 58q16 16 38 16t38 -16l76 -77
q16 -15 16 -37.5t-16 -37.5z" />
    <glyph glyph-name="bianji2" unicode="&#xe640;" 
d="M519.5 859q-95.5 0 -182.5 -37t-149.5 -99.5t-99.5 -149.5t-37 -182.5t37 -182.5t99.5 -150t149.5 -100t182.5 -37t182.5 37t150 100t100 150t37 182.5t-37 182.5t-100 149.5t-150 99.5t-182.5 37zM426 375l212 209l73 -76l-209 -212l-76 79v0zM484 286l-116 -50l45 119z
M741 148v0q0 -4 -3.5 -7.5t-8.5 -3.5h-454q-5 0 -8.5 3.5t-3.5 7.5v451q0 5 3.5 8.5t8.5 3.5h323l-47 -50h-228q-9 0 -9 -10v-354q0 -10 9 -10h358q9 0 9 10v227l51 47v-323zM772 566l-42 -44l-77 77l38 37q17 17 39 0q10 -7 20.5 -16.5t15.5 -14.5l6 -6q1 -3 2 -6.5t2 -13
t-4 -13.5z" />
    <glyph glyph-name="bianji5" unicode="&#xe643;" 
d="M990 578l-344 -344l-250 -94l94 250l344 346q12 14 28 20t34 6q16 0 33 -6t29 -20l32 -32q12 -12 19 -29t7 -33q0 -18 -7 -34t-19 -30v0v0zM472 216l150 56l10 8l-94 96l-10 -10zM568 406l94 -94l234 236l-94 94zM958 674l-30 32q-8 6 -16 9t-16 3t-16 -3t-16 -9l-30 -32
l92 -94l32 32q6 6 10 14t4 16q0 10 -4 18t-10 14v0v0zM154 116v46h218l-18 -46h-200zM404 250h-250v44h268zM154 562h222v-44h-222v44zM376 384h-222v44h222v-44zM640 162v-46h-214l118 46h96zM530 814v-162q0 -10 3 -18t9 -14t14 -10t18 -4h68l-44 -44h-24q-18 0 -34 7
t-28 19t-19 28t-7 36v200h-398q-8 0 -16 -4t-14 -10t-10 -14t-4 -18v-844q0 -10 4 -18t10 -14t14 -10t16 -4h618q10 0 18 4t14 10t9 14t3 18v312l44 46v-358q0 -20 -7 -36t-19 -28t-28 -19t-34 -7h-618q-18 0 -34 7t-28 19t-19 28t-7 36v844q0 20 7 36t19 28t28 19t34 7h428
l198 -216l-30 -32z" />
    <glyph glyph-name="bianji6" unicode="&#xe644;" 
d="M512 768q-104 0 -192.5 -51t-140 -139.5t-51.5 -193t51.5 -193t140 -140t192.5 -51.5t192.5 51.5t140 140t51.5 193t-51.5 193t-140 139.5t-192.5 51zM512 28q-97 0 -179 48t-129.5 130t-47.5 178.5t47.5 178.5t129.5 129.5t179 47.5t179 -47.5t129.5 -129.5t47.5 -178.5
t-47.5 -178.5t-129.5 -130t-179 -48zM606 244h-250q-9 0 -15.5 -6.5t-6.5 -15.5t6.5 -15.5t15.5 -6.5h250q9 0 15.5 6.5t6.5 15.5t-6.5 15.5t-15.5 6.5zM438 388l62 -58l148 176l-62 57zM428 375l-29 -102l90 45zM658 611q-8 8 -18 7t-17 -9l-27 -32l62 -58l27 33
q7 8 6 18.5t-8 17.5z" />
    <glyph glyph-name="bianji8" unicode="&#xe646;" 
d="M947 739q-12 12 -29 12t-29 -12l-406 -407q-12 -12 -12 -29t12 -29t29 -12t29 12l406 407q12 12 12 29t-12 29zM796.5 303q-16.5 0 -28.5 -12t-12 -29v-203q0 -17 -12 -29t-29 -12h-528q-17 0 -29 12t-12 29v650q0 17 12 29t29 12h406q17 0 29 12t12 29t-12 28.5
t-29 11.5h-447q-33 0 -57 -23.5t-24 -57.5v-732q0 -34 24 -57.5t57 -23.5h610q34 0 57.5 23.5t23.5 57.5v244q0 17 -12 29t-28.5 12z" />
    <glyph glyph-name="bianji10" unicode="&#xe648;" 
d="M908.5 404q-8.5 0 -14 -6t-5.5 -14v-339q0 -29 -20.5 -49.5t-49.5 -20.5h-616q-29 0 -49.5 20.5t-20.5 49.5v677q0 29 20.5 49.5t49.5 20.5h362q8 0 14 5.5t6 14t-6 14.5t-14 6h-362q-46 0 -78 -32.5t-32 -77.5v-677q0 -45 32 -77.5t78 -32.5h616q45 0 77.5 32.5
t32.5 77.5v339q0 8 -6 14t-14.5 6zM943 778l-36 35q-17 18 -42 18t-43 -18l-422 -422q-2 -2 -3 -4l-128 -227q-7 -14 4 -25q6 -5 14 -5q5 0 10 3l220 135q2 1 3 3l423 422q17 18 17 42.5t-17 42.5zM419 344l55 -55l-132 -82zM914 721l-408 -408l-64 64l409 408q5 6 13.5 6
t14.5 -6l35 -35q6 -6 6 -14.5t-6 -14.5z" />
    <glyph glyph-name="bianji" unicode="&#xe649;" 
d="M250 58q28 0 57 19h7l-180 179v-6q-19 -29 -19 -58l-64 -198l199 64v0v0v0zM890 774l-58 58q-24 24 -57.5 24t-57.5 -24l-58 -58l173 -172l58 57q24 24 24 57.5t-24 57.5v0v0v0zM774 544l-172 173l-404 -403l173 -173l403 403v0v0v0zM0 -64h1024v-64h-1024v64v0z" />
    <glyph glyph-name="wuxuliebiao" unicode="&#xe64a;" horiz-adv-x="1434" 
d="M0 896h205v-205h-205v205zM410 896h1024v-205h-1024v205zM0 486h205v-204h-205v204zM410 486h1024v-204h-1024v204zM0 77h205v-205h-205v205zM410 77h1024v-205h-1024v205z" />
    <glyph glyph-name="biaoqian1" unicode="&#xe64c;" 
d="M994 383q53 -62 1 -120l-371 -373q-12 -9 -26 -13.5t-28.5 -3t-27 6t-20.5 13.5q-134 134 -240 241l-88 90q-45 43 -79 77q-35 36 -56 57l-22 23q-3 2 -8.5 10t-11.5 20.5t-10.5 28t-4.5 33.5v21v42q1 26 2 56v61q1 73 3 161q2 15 5 29.5t15 27.5q12 12 27 16t27 4h364
q3 1 17 0.5t18 -2.5q7 -3 16 -9t15 -12zM177 647q31 0 52.5 21.5t21.5 52.5t-21.5 52.5t-52.5 21.5t-53.5 -21.5t-22.5 -52.5t22.5 -52.5t53.5 -21.5v0z" />
    <glyph glyph-name="biaoqian3" unicode="&#xe64e;" 
d="M722 650v0v0v-523l-189 146l-22 17l-23 -17l-186 -145v522h420zM722 687h-420q-16 0 -26.5 -10.5t-10.5 -26.5v-532q0 -16 10.5 -26.5t26.5 -10.5l209 163l211 -163q16 0 26.5 10.5t10.5 26.5v532q0 16 -10.5 26.5t-26.5 10.5v0z" />
    <glyph glyph-name="biaoqian4" unicode="&#xe64f;" 
d="M298 862v-942l249 194l222 -222v970h-471z" />
    <glyph glyph-name="biaoqian5" unicode="&#xe650;" 
d="M741 44q-6 0 -10 5l-96 122q-35 -41 -81 -69l-1 -1q-8 -5 -15 0q-10 6 -26 6t-26 -6q-7 -5 -14 0l-2 1q-46 28 -81 69l-96 -122q-4 -5 -11 -4.5t-11 6.5l-16 32q-47 87 -31 185t87 167q5 128 54.5 245.5t136.5 211.5q4 4 10 4t10 -4q87 -94 136.5 -211.5t54.5 -245.5
q71 -69 87 -167t-31 -185l-16 -32q-4 -6 -11 -7h-1zM635 206q6 0 10 -5l94 -119l7 13q43 81 27.5 171.5t-82.5 153.5q-4 3 -4 9q-4 121 -49 233t-126 202q-81 -90 -126 -202.5t-49 -232.5q0 -6 -4 -9q-67 -63 -82.5 -153.5t27.5 -171.5l7 -13l94 119q4 5 10.5 5t10.5 -5
q33 -44 79 -74q33 14 66 0q46 30 79 74q4 5 11 5v0zM513.5 -128q-5.5 0 -9 4t-3.5 9v162q0 5 3.5 9t9 4t9.5 -4t4 -9v-162q0 -5 -4 -9t-9.5 -4zM425.5 -56q-5.5 0 -9.5 4t-4 9v108q0 5 4 9t9.5 4t9.5 -4t4 -9v-108q0 -5 -4 -9t-9.5 -4zM603.5 -56q-5.5 0 -9.5 4t-4 9v108
q0 5 4 9t9.5 4t9.5 -4t4 -9v-108q0 -5 -4 -9t-9.5 -4zM512 433q-41 0 -70.5 29t-29.5 70.5t29.5 70.5t70.5 29t70.5 -29t29.5 -70.5t-29.5 -70.5t-70.5 -29zM512 606q-30 0 -51.5 -21.5t-21.5 -52t21.5 -52t51.5 -21.5t51.5 21.5t21.5 52t-21.5 52t-51.5 21.5z" />
    <glyph glyph-name="biaoqian" unicode="&#xe652;" 
d="M513 -73q-91 0 -174 36t-143 96t-95.5 142.5t-35.5 173.5t35.5 174t95.5 143t143 95.5t174 35.5t174 -35.5t143 -95.5t95.5 -143t35.5 -174t-35.5 -173.5t-95.5 -142.5t-143 -96t-174 -36zM513 806q-117 0 -216.5 -57.5t-157 -157t-57.5 -216t57.5 -216t157 -157
t216.5 -57.5t216 57.5t156.5 157t57.5 216t-57.5 216t-156.5 157t-216 57.5zM545 92l-309 310v202h202l310 -310zM253 409l292 -292l178 177l-292 293h-178v-178zM624 98l-12 12l184 184l-295 295l12 12l307 -307zM362.5 423q-22.5 0 -38 16t-15.5 38t15.5 38t38 16
t38.5 -16t16 -38t-16 -38t-38.5 -16zM362.5 514q-15.5 0 -26 -11t-10.5 -26t10.5 -26t26 -11t26.5 11t11 26t-11 26t-26.5 11z" />
    <glyph glyph-name="biaoqing1" unicode="&#xe653;" 
d="M512 734q-95 0 -175.5 -47t-127.5 -127.5t-47 -175.5t47 -175.5t127.5 -127.5t175.5 -47t175.5 47t127.5 127.5t47 175.5t-47 175.5t-127.5 127.5t-175.5 47zM512 42q-93 0 -171.5 46t-124.5 124.5t-46 171.5t46 171.5t124.5 124.5t171.5 46t171.5 -46t124.5 -124.5
t46 -171.5t-46 -171.5t-124.5 -124.5t-171.5 -46zM512 122q92 0 157 65t65 157h-444q0 -92 65 -157t157 -65zM388.5 455q13.5 0 23.5 9.5t10 23t-10 23.5t-23.5 10t-23.5 -10t-10 -23.5t10 -23t23.5 -9.5zM636.5 455q13.5 0 23.5 9.5t10 23t-10 23.5t-23.5 10t-23 -10
t-9.5 -23.5t9.5 -23t23 -9.5z" />
    <glyph glyph-name="biaoqing2" unicode="&#xe654;" 
d="M512 875q-99 0 -190 -38.5t-156.5 -104.5t-104.5 -156.5t-39 -190t39 -190t104.5 -156.5t156.5 -104.5t190 -38.5t190 38.5t156.5 104.5t104.5 156.5t39 190t-39 190t-104.5 156.5t-156.5 104.5t-190 38.5zM512 -60q-90 0 -172.5 35.5t-142.5 95t-95 142t-35 173t35 173
t95 142t142.5 95t172.5 35.5t172.5 -35.5t142.5 -95t95 -142t35 -173t-35 -173t-95 -142t-142.5 -95t-172.5 -35.5zM706 596q-51 0 -87 -39t-36 -94q0 -9 6.5 -15.5t15.5 -6.5t15.5 6.5t6.5 15.5q0 37 23.5 62.5t56 25.5t55.5 -25.5t23 -62.5q0 -9 6.5 -15.5t15.5 -6.5
t16 6.5t7 15.5q0 55 -36.5 94t-87.5 39zM321.5 551q32.5 0 55.5 -25.5t23 -62.5q0 -9 6.5 -15.5t16 -6.5t16 6.5t6.5 15.5q0 55 -36 94t-87 39t-87.5 -39t-36.5 -94q0 -9 6.5 -15.5t16 -6.5t16 6.5t6.5 15.5q0 37 23 62.5t55.5 25.5zM750.5 279.5q-8.5 3.5 -17 0
t-12.5 -12.5q-29 -70 -86 -112.5t-123 -42.5t-123 42.5t-86 112.5q-4 9 -12.5 12.5t-17 0t-12 -12t-0.5 -16.5q34 -84 102.5 -133.5t148.5 -49.5t148.5 49.5t102.5 133.5q3 8 -0.5 16.5t-12 12z" />
    <glyph glyph-name="biaoqing" unicode="&#xe655;" 
d="M349.5 471q22.5 0 38.5 16t16 38.5t-16 38.5t-38.5 16t-38 -16t-15.5 -38.5t15.5 -38.5t38 -16zM674.5 471q22.5 0 38 16t15.5 38.5t-15.5 38.5t-38 16t-38.5 -16t-16 -38.5t16 -38.5t38.5 -16zM512 883q-101 0 -193.5 -39.5t-159 -106t-106 -159t-39.5 -193.5
t39.5 -193.5t106 -159t159 -106t193.5 -39.5t193.5 39.5t159 106t106 159t39.5 193.5t-39.5 193.5t-106 159t-159 106t-193.5 39.5zM512 -70q-92 0 -176.5 36t-145.5 97t-96.5 145t-35.5 176.5t35.5 177t96.5 145t145.5 96.5t176.5 36t176.5 -36t145.5 -96.5t96.5 -145
t35.5 -177t-35.5 -176.5t-96.5 -145t-145.5 -97t-176.5 -36zM750 385q-9 0 -15.5 -6.5t-6.5 -15.5q0 -89 -63 -152.5t-153 -63.5t-153 63.5t-63 152.5q0 9 -6.5 15.5t-15.5 6.5t-15.5 -6.5t-6.5 -15.5q0 -107 76 -183t184 -76t184 76t76 183q0 9 -6.5 15.5t-15.5 6.5z" />
    <glyph glyph-name="biaoqingcha" unicode="&#xe656;" 
d="M512 896q-139 0 -257 -68.5t-186.5 -186.5t-68.5 -257t68.5 -257t186.5 -186.5t257 -68.5t257 68.5t186.5 186.5t68.5 257t-68.5 257t-186.5 186.5t-257 68.5zM205 512q0 17 5 22.5t15 2.5t21.5 -8.5t28.5 -11t32 -5.5t32 5.5t28.5 11t22 8.5t15.5 -2.5t5 -22.5
q0 -42 -30 -72t-72.5 -30t-72.5 30t-30 72zM674 119q-16 -14 -37.5 -12.5t-35.5 17.5q-12 14 -32 29q-34 26 -57 26t-57 -26q-20 -15 -32 -29q-14 -16 -35.5 -17.5t-37.5 12.5t-17 35t13 37q19 22 47 44q62 47 119 47t119 -47q27 -21 48 -44q14 -16 12.5 -37t-17.5 -35z
M716.5 410q-42.5 0 -72.5 30t-30 72q0 17 5 22.5t15.5 2.5t22 -8.5t28.5 -11t32 -5.5t32 5.5t28.5 11t21.5 8.5t15 -2.5t5 -22.5q0 -42 -30 -72t-72.5 -30z" />
    <glyph glyph-name="butie1" unicode="&#xe658;" 
d="M511.5 830q-90.5 0 -173.5 -35.5t-142.5 -95t-95 -142.5t-35.5 -173.5t35.5 -173t95 -142.5t142.5 -95t173.5 -35t173 35t142.5 95t95 142.5t35 173t-35 173.5t-95 142.5t-142.5 95t-173 35.5zM700 577l-141 -187h101q12 0 20.5 -5.5t8.5 -12.5q0 -9 -8.5 -14.5
t-20.5 -5.5h-105v-54h105q12 0 20.5 -6t8.5 -13.5t-8.5 -13.5t-20.5 -6h-105v-85q0 -12 -13 -20t-31.5 -8t-31.5 8t-13 20v85h-104q-12 0 -20.5 6t-8.5 13.5t8.5 13.5t20.5 6h104v54h-104q-12 0 -20.5 6t-8.5 14q0 7 9 12.5t20 5.5h102l-142 187q-9 10 -2.5 21t23.5 18
q29 14 53 -6l108 -158q2 -3 7 -3t7 3l108 158q23 19 55 5q16 -7 22 -17t-3 -21z" />
    <glyph glyph-name="butie2" unicode="&#xe659;" 
d="M382 639h247q21 0 43 17t37.5 41.5t28.5 49t19 41.5l6 17q0 22 -2 35t-10.5 26.5t-27.5 20t-49 7.5q-29 1 -53.5 -8t-39 -20.5t-34 -21t-39.5 -9.5q-32 0 -82.5 27t-88.5 32q-27 4 -46 -2t-28 -20.5t-12.5 -30t-3.5 -36.5q0 -1 6.5 -17.5t19.5 -41.5t28.5 -49t37.5 -41
t43 -17v0zM642 588h-260q-46 0 -88 -19.5t-73.5 -52t-59.5 -75.5t-47.5 -89.5t-35.5 -93.5t-26 -89t-16.5 -75.5t-9.5 -52t-3 -19.5q0 -57 40 -103t95 -46h709q54 0 94 46t40 103l-18 99q-63 290 -188 404q-69 63 -153 63v0zM672 153q13 0 22 -9.5t9 -22.5t-9 -22t-22 -9
h-128v-83q0 -13 -9 -22t-22 -9t-22.5 9t-9.5 22v83h-128q-13 0 -22 9t-9 22t9 22.5t22 9.5h128v40h-128q-13 0 -22 9t-9 22t9 22.5t22 9.5h87l-89 158q-7 11 -3.5 23.5t15 19t24 3t18.5 -14.5l107 -189h6l107 189q6 11 18.5 14.5t24 -3t15 -19t-3.5 -23.5l-89 -158h82
q13 0 22 -9.5t9 -22.5t-9 -22t-22 -9h-128v-40h128v0z" />
    <glyph glyph-name="butie" unicode="&#xe65a;" 
d="M382 639h247q21 0 43 17t37.5 41.5t28.5 49t19 41.5l6 17q0 22 -2 35t-10.5 26.5t-27.5 20t-49 7.5q-29 1 -53.5 -8t-39 -20.5t-34 -21t-39.5 -9.5q-32 0 -82.5 27t-88.5 32q-27 4 -46 -2t-28 -20.5t-12.5 -30t-3.5 -36.5q0 -1 6.5 -17.5t19.5 -41.5t28.5 -49t37.5 -41
t43 -17v0zM642 588h-260q-46 0 -88 -19.5t-73.5 -52t-59.5 -75.5t-47.5 -89.5t-35.5 -93.5t-26 -89t-16.5 -75.5t-9.5 -52t-3 -19.5q0 -57 40 -103t95 -46h709q54 0 94 46t40 103l-18 99q-63 290 -188 404q-69 63 -153 63v0zM672 153q13 0 22 -9.5t9 -22.5t-9 -22t-22 -9
h-128v-83q0 -13 -9 -22t-22 -9t-22.5 9t-9.5 22v83h-128q-13 0 -22 9t-9 22t9 22.5t22 9.5h128v40h-128q-13 0 -22 9t-9 22t9 22.5t22 9.5h87l-89 158q-7 11 -3.5 23.5t15 19t24 3t18.5 -14.5l107 -189h6l107 189q6 11 18.5 14.5t24 -3t15 -19t-3.5 -23.5l-89 -158h82
q13 0 22 -9.5t9 -22.5t-9 -22t-22 -9h-128v-40h128v0z" />
    <glyph glyph-name="caijian" unicode="&#xe65c;" horiz-adv-x="1026" 
d="M1025 256v-128h-128v-193h-128v193h-513q-27 0 -45 18.5t-18 44.5v449h-193v128h193v128h128v-128h512q26 0 45 -18.5t19 -44.5v-449h128zM769 640h-448v-384h448v384zM705 319h-320v258h320v-258z" />
    <glyph glyph-name="caozuo" unicode="&#xe660;" 
d="M951 457v-439q0 -30 -21.5 -51.5t-51.5 -21.5h-732q-30 0 -51.5 21.5t-21.5 51.5v732q0 30 21.5 51.5t51.5 21.5h439v73h-439q-60 0 -103 -43t-43 -103v-732q0 -60 43 -103t103 -43h732q60 0 103 43t43 103v439h-73zM366 238l658 585l-73 73l-658 -585z" />
    <glyph glyph-name="caozuotongji" unicode="&#xe661;" 
d="M830 551h-79q-23 0 -38.5 -15.5t-15.5 -37.5v-407h-48v556q0 23 -15.5 38.5t-37.5 15.5h-80q-22 0 -37.5 -15.5t-15.5 -38.5v-556h-48v331q0 22 -15.5 38t-37.5 16h-80q-22 0 -38 -16t-16 -38v-331h-37q-4 0 -4 5v585q0 10 -7.5 17.5t-17.5 7.5t-17 -7.5t-7 -17.5v-585
q0 -23 15.5 -38.5t37.5 -15.5h506h161q11 0 18.5 7.5t7.5 18.5v430q0 22 -16 37.5t-38 15.5zM512 647q0 5 4 5h80q4 0 4 -5v-556h-88v556zM277 422q0 5 5 5h80q4 0 4 -5v-331h-89v331zM835 91h-89v407q0 4 5 4h79q5 0 5 -4v-407z" />
    <glyph glyph-name="chakan1" unicode="&#xe665;" 
d="M929 384q0 7 -1 10q-1 5 -2 9l-1 2t-1 4q-58 126 -171.5 203.5t-240.5 77.5t-240.5 -77.5t-170.5 -202.5q-2 -3 -2 -6l-0.5 -0.5l-0.5 -0.5q-1 -2 -1 -7l-2 -9v-6q1 -5 1 -7t1 -6v0q1 -2 2 -5q1 -2 1 -3q58 -127 171.5 -204.5t240.5 -77.5t240.5 77.5t170.5 202.5
q2 2 2 6l1 1l2 7h-1q2 7 2 12zM873 382v-1l-0.5 -0.5l-0.5 -0.5q-51 -110 -150 -178t-210 -68q-110 0 -209 68t-151 178q0 1 -0.5 1.5l-0.5 0.5v0.5v0.5v1v1v2h0.5t0.5 1q51 110 150.5 178t210 68t209.5 -68t150 -178v-1q1 0 1 -1v-2v-2zM512 523q-57 0 -98 -41t-41 -98
t41 -98t98 -41t98 41t41 98t-41 98t-98 41zM512.5 301q-34.5 0 -59 24.5t-24.5 58.5t24.5 58.5t59 24.5t58.5 -24.5t24 -58.5t-24 -58.5t-58.5 -24.5z" />
    <glyph glyph-name="chexiao2" unicode="&#xe66a;" 
d="M893 541l-314 -291v179h-14h-36.5t-40.5 -2t-45 -5.5t-43.5 -11.5t-42 -18.5t-35.5 -28t-30 -39t-18.5 -52t-7.5 -67.5q0 -95 57 -173t144 -96q-144 20 -240 127.5t-96 253.5q0 58 14 107.5t35 84t54 62.5t62.5 45t70.5 29t67.5 18t63 9t49 3h32.5v157z" />
    <glyph glyph-name="chexiao3" unicode="&#xe66b;" 
d="M505.5 -127q-102.5 0 -196.5 39q-90 39 -159.5 108.5t-108.5 159.5q-39 94 -39 196.5t39 195.5q39 90 108.5 160t159.5 108q94 40 196.5 40t195.5 -40q90 -38 160 -108t108 -160q40 -93 40 -195.5t-40 -196.5q-38 -90 -108 -159.5t-160 -108.5q-93 -39 -195.5 -39z
M505 819q-90 0 -172 -35q-80 -33 -141 -94.5t-95 -140.5q-35 -83 -35 -173t35 -172q34 -80 95 -141t141 -95q82 -35 172 -35t173 35q79 34 140.5 95t94.5 141q35 82 35 172t-35 173q-33 79 -94.5 140.5t-140.5 94.5q-83 35 -173 35zM595 472h-240l62 62q9 9 9 21.5t-9 21.5
t-21.5 9t-21.5 -9l-113 -114q-9 -9 -9 -21.5t9 -21.5l113 -113q9 -9 21.5 -9t21.5 9t9 21.5t-9 21.5l-62 61h240q41 0 69.5 -28t28.5 -68t-28.5 -68.5t-69.5 -28.5h-221q-12 0 -21 -9t-9 -21.5t9 -21.5t21 -9h221q66 0 112 46.5t46 111.5t-46 111t-112 46z" />
    <glyph glyph-name="chajian1" unicode="&#xe66c;" 
d="M734 631q-176 -8 -238 -11q-30 -1 -39.5 19t14.5 46q16 16 21 22.5t8.5 20.5t1.5 38q-4 38 -35.5 55.5t-71.5 17.5q-38 -1 -71 -20t-44 -51q-18 -54 16 -80q1 0 7 -4t8 -6l6.5 -6.5t5 -8t0 -8t-4.5 -10t-11 -11.5q-6 -4 -29.5 -5.5t-54 0t-59.5 3t-50 3.5t-20 2
q0 -19 -1.5 -45t-3 -91t2.5 -76q3 -21 22.5 -26t36.5 16q13 16 34.5 19.5t42.5 -5.5t37.5 -32t18.5 -55q1 -26 -8.5 -46t-24.5 -29t-31.5 -12.5t-31 1.5t-20.5 16q-16 26 -46 28t-33 -29q-4 -67 28 -280v0q14 -4 37 -8.5t72.5 -10.5t74.5 -2q20 3 26 29t-12 42
q-7 6 -10.5 20.5t-0.5 31.5t12.5 32t33 23.5t56.5 5.5q26 -3 43 -13.5t22.5 -23.5t5.5 -27t-5 -25t-13 -15q-11 -8 -13.5 -22t7.5 -28.5t32 -20.5q21 -4 51.5 -3.5t67.5 5t67.5 10t52 9.5l21.5 4q-3 18 -7 45.5t-9 84t-2 79.5q4 18 16 25.5t25.5 4.5t24.5 -9t14 -10
q26 -33 63 -34.5t65.5 31t28.5 85.5q0 75 -38.5 106t-78.5 22.5t-48 -30.5q-7 -21 -24 -27t-31.5 1t-17.5 20q-4 17 -4.5 47.5t1.5 62t4.5 59.5t4.5 46.5t2 17.5z" />
    <glyph glyph-name="chakan2" unicode="&#xe66f;" 
d="M929 384q0 7 -1 10q-1 5 -2 9l-1 2t-1 4q-58 126 -171.5 203.5t-240.5 77.5t-240.5 -77.5t-170.5 -202.5q-2 -3 -2 -6l-0.5 -0.5l-0.5 -0.5q-1 -2 -1 -7l-2 -9v-6q1 -5 1 -7t1 -6v0q1 -2 2 -5q1 -2 1 -3q58 -127 171.5 -204.5t240.5 -77.5t240.5 77.5t170.5 202.5
q2 2 2 6l1 1l2 7h-1q2 7 2 12zM873 382v-1l-0.5 -0.5l-0.5 -0.5q-51 -110 -150 -178t-210 -68q-110 0 -209 68t-151 178q0 1 -0.5 1.5l-0.5 0.5v0.5v0.5v1v1v2h0.5t0.5 1q51 110 150.5 178t210 68t209.5 -68t150 -178v-1q1 0 1 -1v-2v-2zM512 523q-57 0 -98 -41t-41 -98
t41 -98t98 -41t98 41t41 98t-41 98t-98 41zM512.5 301q-34.5 0 -59 24.5t-24.5 58.5t24.5 58.5t59 24.5t58.5 -24.5t24 -58.5t-24 -58.5t-58.5 -24.5z" />
    <glyph glyph-name="changyongxinxi" unicode="&#xe671;" 
d="M428 -74h-8l-0.5 0.5t-0.5 1.5l1 1q0 1 1 1h1v1q0 1 1 1h1q1 0 2 -1v-1h1q1 0 1 -1l1 -1q0 -1 -0.5 -1.5zM421 -72h6v0h-1q-1 0 -1 1l-1 1h-1v-1q0 -1 -1 -1h-1v0zM420 -80zM419 -80q0 1 1.5 1t1.5 -1t-1.5 -1t-1.5 1zM424 -80zM423 -80q0 1 1 1t1 -1t-1 -1t-1 1z
M428 -80zM427 -80q0 1 1 1t1 -1t-1 -1t-1 1zM498 586l-223 -94l222 -95q3 -1 11 -1t10 1l223 95l-223 94q-2 1 -10 1t-10 -1zM507.5 879q-101.5 0 -193.5 -39.5t-159 -106t-106.5 -159t-39.5 -194t39.5 -194t106.5 -159.5t159 -106.5t193.5 -39.5t194 39.5t159.5 106.5
t106.5 159.5t39.5 194t-39.5 194t-106.5 159t-159.5 106t-194 39.5zM771 206l-240 -102q-10 -4 -23 -4t-23 4l-240 102q-6 2 -8.5 8t0 12t8.5 8.5t12 -0.5l240 -101q4 -2 11 -2t10 2l241 101q6 3 12 0.5t8.5 -8.5t0 -12t-8.5 -8zM771 294l-240 -101q-10 -5 -23 -5t-23 5
l-240 101q-6 2 -8.5 8t0 12t8.5 8.5t12 0.5l240 -102q4 -2 11 -2t10 2l241 102q14 5 20 -9q3 -6 0.5 -12t-8.5 -8zM771 382l-240 -101q-10 -4 -23 -4t-23 4l-240 101q-6 3 -8.5 9t0 11.5t8.5 8t12 0.5l240 -102q4 -1 11 -1t10 1l241 102q6 2 12 -0.5t8.5 -8t0 -11.5t-8.5 -9
zM771 470l-240 -101q-10 -4 -23 -4t-23 4l-240 101q-16 7 -16 21.5t16 21.5l240 101q23 10 46 0l240 -101q16 -7 16 -21.5t-16 -21.5z" />
    <glyph glyph-name="cheliang" unicode="&#xe672;" horiz-adv-x="1039" 
d="M939 33q-9 -37 -39 -61.5t-68 -24.5q-36 0 -64.5 21t-40.5 55h-430q-12 -34 -40.5 -55t-64.5 -21q-38 0 -68 24.5t-39 61.5q-41 17 -64 55.5t-20 84.5l11 144q3 42 28 77.5t64 53.5l46 224q13 61 65.5 105t113.5 44h366q61 0 113.5 -44t65.5 -105l46 -224
q39 -18 64 -53.5t28 -77.5l11 -144q3 -46 -20 -84.5t-64 -55.5v0zM950 312q-2 28 -21 51t-46 31q-20 6 -22 27q0 2 -1 6v2l-47 230q-9 39 -43.5 68t-74.5 29h-366q-40 0 -74.5 -29t-43.5 -68l-47 -230l-1 -2v-6q-2 -21 -22 -27q-28 -8 -46.5 -31t-20.5 -51l-10 -144
q-2 -28 13.5 -50.5t42.5 -28.5q10 -3 16.5 -11t7.5 -19q1 -20 15 -33.5t33 -13.5t33 13t16 32q1 13 10 21.5t21 8.5h480q12 0 21 -8.5t10 -21.5q2 -19 16 -32t33 -13t33 13.5t15 33.5q1 11 7.5 19t16.5 11q27 6 42.5 28.5t13.5 50.5l-10 144v0zM840 185q-20 -21 -49.5 -21
t-50 21t-20.5 51t20.5 51t50 21t50 -21t20.5 -51t-21 -51v0zM780 430q-9 -12 -27 -12h-482q-18 0 -28 12t-7 30v1v1l38 169q4 20 20.5 34.5t36.5 14.5h362q20 0 36.5 -14.5t20.5 -34.5l37 -169q1 0 1 -2q3 -18 -8 -30v0zM689 616h-354l-30 -134h414l-30 134v0zM284 185
q-21 -21 -50.5 -21t-50 21t-20.5 51t20.5 51t50 21t50 -21t20.5 -51t-20 -51v0z" />
    <glyph glyph-name="chexiao5" unicode="&#xe677;" 
d="M512 832q-91 0 -174 -35.5t-143 -95.5t-95.5 -143t-35.5 -174t35.5 -174t95.5 -143t143 -95.5t174 -35.5t174 35.5t143 95.5t95.5 143t35.5 174t-35.5 174t-95.5 143t-143 95.5t-174 35.5zM511.5 -8q-106.5 0 -196.5 52.5t-142.5 142.5t-52.5 197t52.5 197t142.5 142.5
t196.5 52.5t197 -52.5t143 -143t52.5 -196.5t-52.5 -196.5t-143 -143t-197 -52.5zM700 552l-20 20q-10 10 -20 0l-148 -148l-149 148q-9 10 -19 0l-20 -20q-10 -10 0 -20l148 -148l-148 -148q-10 -10 0 -20l20 -20q10 -10 19 0l149 148l148 -148q10 -10 20 0l20 20
q10 10 0 20l-148 148l148 148q10 10 0 20z" />
    <glyph glyph-name="chexiao" unicode="&#xe678;" 
d="M771 540h-433v183l-276 -214l276 -201v164h433q54 0 88.5 -35t34.5 -89v-112q0 -14 -1.5 -27.5t-7.5 -32t-16.5 -32t-30 -23t-45.5 -9.5h-607v-67h607q77 0 123 52t46 139v112q0 82 -54.5 137t-136.5 55z" />
    <glyph glyph-name="chenggong2" unicode="&#xe67a;" 
d="M510 831q-91 0 -173.5 -35.5t-142 -95t-95 -142t-35.5 -173t35.5 -173t95 -142.5t142 -95t173.5 -35t173.5 35t142 95t95 142.5t35.5 173t-35.5 173t-95 142t-142 95t-173.5 35.5zM442 146q-51 64 -106.5 110.5t-98.5 62.5l132 83l65 -128q4 10 12 28t35 67.5t56.5 92
t74.5 88.5t91 70q-1 -13 -4 -43.5t-4 -47t2.5 -42t13.5 -48.5q-50 -12 -139 -113.5t-130 -179.5z" />
    <glyph glyph-name="chenggong" unicode="&#xe67b;" 
d="M50 291q158 89 238 144l115 -223q5 10 13.5 27.5t36.5 70t57.5 102t75 114.5t90.5 117.5t101.5 101t111.5 74.5q-2 -11 -4 -28t-5.5 -64t-3.5 -86t7 -79.5t21 -58.5q-11 -7 -31.5 -20t-80.5 -60.5t-116.5 -102t-128.5 -144t-128 -186.5l-83 72.5t-175 147.5t-111 81z" />
    <glyph glyph-name="chongwu" unicode="&#xe67c;" 
d="M150 781q-9 -23 -28 -41t-38 -27t-40 -14t-31 -6.5t-13 -1.5v-64q17 -14 43 -35.5t78 -57t71 -35.5t67 32t88 64t39 32l62 -64q-42 -35 -82 -64q-17 -13 -44.5 -29t-46.5 -25l-19 -10q2 -5 4.5 -15.5t8.5 -39.5t9.5 -56.5t2.5 -61t-9 -57.5q-12 -40 -32 -94t-34 -89
l-14 -35q-1 -2 -1.5 -6.5t1 -15.5t7 -19.5t20 -15.5t37.5 -7q15 0 31 16t25 32l8 16q27 68 66 127q18 27 34 43t23 18l7 3h191q40 -27 64 -64q20 -29 39 -66.5t24 -60.5q6 -26 22.5 -45t41.5 -19q26 0 45 19t19 45q0 2 -20 86.5t-36 177t-8 120.5q11 38 22.5 63.5t18 34.5
t23.5 30q9 11 42.5 37t59.5 50.5t26 40.5q0 17 -13.5 23.5t-27.5 4.5t-21 -6q-11 -7 -66 -46q-28 -20 -97 -59.5t-95 -44.5q-32 -5 -54.5 -5.5t-73.5 5.5q-29 4 -61 20t-49 30l-18 14l193 192l-65 64l-190 -192l-66 256q-35 -4 -73 -19q-78 -30 -97 -83z" />
    <glyph glyph-name="dache" unicode="&#xe680;" 
d="M990 404q0 21 -22.5 35.5t-55.5 14.5q-20 0 -38 -6l-59 168q-4 6 -10 20.5t-11.5 20t-15.5 5.5h-93l-13 68q-4 14 -19.5 21t-33.5 7h-212q-18 0 -33.5 -7t-19.5 -21l-13 -68h-93q-8 0 -14 -5t-9 -9.5t-8 -16.5t-6 -15l-59 -168q-18 6 -38 6q-33 0 -55.5 -14.5
t-22.5 -35.5t22.5 -36t55.5 -15h0.5h0.5v-1.5v-1.5q-2 -41 13 -146t25 -154q5 -25 14.5 -33t27.5 -8h79q16 0 25 12t9 29v44q18 -2 33 -3q195 -12 344 0q15 1 33 3v-44q0 -17 9 -29t25 -12h79q16 0 27 11.5t15 29.5q15 42 37 156t14 148q28 3 47 17t19 33zM248 186
q-33 0 -56.5 24t-23.5 58t23.5 58t56.5 24t56 -24t23 -58t-23 -58t-56 -24zM646 418q-46 -6 -125 -5t-114 5l-137 16q-17 0 -28 12t-11 29l19 80q6 22 14 30.5t24 8.5h450q16 0 24 -8.5t14 -30.5l19 -80q0 -17 -11 -29t-27 -12q-4 -2 -111 -16zM791 186q-33 0 -56 24t-23 58
t23 58t56 24t56.5 -24t23.5 -58t-23.5 -58t-56.5 -24z" />
    <glyph glyph-name="dayinji2" unicode="&#xe682;" 
d="M937 672h-100v187h-651v-187h-163v-497q0 -27 18.5 -45.5t45.5 -18.5h128v110h593v-110h193v497q0 26 -18.5 45t-45.5 19v0zM216 831h591v-159h-591v159zM972 562v0v-422h-135v113h-651v-113h-96q-16 0 -27 11t-11 27v43v0v422h882q16 0 27 -11.5t11 -27.5v-42v0z
M739 -66q0 -8 -7 -8h-442q-6 0 -6 8v248h-29v-256q0 -10 7.5 -17.5t17.5 -7.5h462q11 0 18.5 7.5t7.5 17.5v256h-29v-248zM447 507h-238q-7 0 -7 -6v-16q0 -7 7 -7h238q6 0 6 7v16q0 6 -6 6z" />
    <glyph glyph-name="dayinji3" unicode="&#xe683;" 
d="M858 613h-119v129h-455v-129h-119q-15 0 -26 -11t-11 -26v-317h156v-55l173 -173h282v226h156v319q0 15 -11 26t-26 11zM328 698h367v-85h-367v85zM783 318h-44v87h-44v-330h-180q-13 0 -22.5 8.5t-13 22.5t-5 30.5t-0.5 33t2.5 30l2.5 22.5l2 8q-3 -1 -8.5 -2t-21 -3.5
t-30 -3.5t-32 0t-30.5 5t-21.5 13t-9.5 24v142h-44v-85h-43v148h542v-150v0zM814 521q-12 0 -21 9t-9 21.5t9 21t21 8.5t21 -8.5t9 -21t-9 -21.5t-21 -9zM643 399h-253v-44h253v44zM390 268h253v44h-253v-44z" />
    <glyph glyph-name="dayinji" unicode="&#xe684;" 
d="M288 633q-28 -1 -55 -1h-85q-18 0 -37 -6t-33.5 -19t-23.5 -33t-9 -47v-77h934v42q0 16 -0.5 30.5t-0.5 18.5q0 13 -5 29.5t-17.5 30t-32.5 23t-51 9.5h-136v-99h-448v99zM978 394v-53q0 -24 0.5 -53.5t0.5 -59t-11 -48.5t-26.5 -31t-33.5 -16.5t-32 -4.5
q-15 -1 -31 -0.5t-30 0.5h-33l-46 131h-449l-45 -131h-30h-35q-20 0 -46 1q-26 0 -42 9.5t-26 23.5t-14 30.5t-4 30.5v171h933zM167 330q-12 0 -21.5 -9t-9.5 -22t9.5 -22t21.5 -9q13 0 22.5 9t9.5 22t-9.5 22t-22.5 9zM324 203q-9 -27 -15 -49q-5 -20 -10.5 -38.5
t-7.5 -25.5t-3 -15t1 -15t9.5 -11t22.5 -4h37h69h83h82h65h37q24 0 35 12.5t2 38.5q-5 14 -9.5 31.5t-9.5 35.5q-5 19 -12 40h-376zM344 587v233q0 11 2.5 23.5t10.5 22.5t21 16t35 6h192q32 0 53 -15t21 -54v-232h-335z" />
    <glyph glyph-name="dakadianji" unicode="&#xe685;" horiz-adv-x="1039" 
d="M702 323q-3 -106 -103.5 -179t-242.5 -73h-10q-24 1 -46 3h-1q-4 -2 -12 -5q-14 -7 -38 -22q-11 -6 -30 -18q-42 -25 -61 -35l-7 -4q-28 -14 -44 -15v0v0q-5 0 -9 1l-2 1q-11 2 -18 13t-5 20q0 13 10 32l3 4q8 14 23 37q19 28 28 44q-64 37 -100 92t-36 115v5
q3 106 103.5 179.5t242.5 73.5h5q3 0 6 -1q144 -3 243.5 -79t100.5 -184v-5v0zM908 398q8 -13 23 -35q13 -20 20 -31l2 -4q9 -17 10 -29q1 -8 -5.5 -17.5t-16.5 -11.5l-2 -1h-7h-1q-13 1 -36 13l-7 3q-15 8 -51 30q-14 8 -26 15q-20 12 -32 18l-10 5v0q-5 -1 -16 -2l-11 -1
v21l-1 5l-25 54q1 0 -19 26.5t-53.5 60t-62.5 49.5l-101 49q-15 3 -31 5l-13 2l4 12q29 69 106 113t174 46h6h3q121 0 206 -62.5t88 -152.5v-4q0 -51 -30.5 -97.5t-84.5 -78.5v0z" />
    <glyph glyph-name="daikuan" unicode="&#xe686;" 
d="M512 186q-29 0 -49.5 -21t-20.5 -50t20.5 -49.5t49.5 -20.5t49.5 20.5t20.5 49.5t-20.5 50t-49.5 21v0zM256 269l51 -51q87 76 205 76q56 0 110.5 -21t94.5 -55l51 51q-113 102 -256 102q-131 0 -256 -102v0zM128 397l51 -51q150 128 333 128q188 0 333 -135l51 58
q-78 73 -176.5 113t-207.5 40q-106 0 -204.5 -41t-179.5 -112v0zM512 730q-147 0 -277.5 -54t-228.5 -151l52 -51q88 88 205 136.5t249 48.5t250 -48.5t211 -136.5l51 51q-103 97 -234.5 151t-277.5 54v0z" />
    <glyph glyph-name="daochu" unicode="&#xe689;" 
d="M796 283q-4 12 -17 12h-646q-5 0 -7.5 -3.5t-1.5 -8.5l112 -323q4 -13 18 -13h641q5 0 7.5 3.5t1.5 9.5zM870 498h-157q-19 0 -33 -13t-14 -30v-56h-343q-9 -15 -16.5 -28.5t-10.5 -20.5l-3 -6q0 28 2 55h-76q-7 0 -11.5 -4.5t-4.5 -11.5v-64h590q15 0 20 -14l103 -300
v362v16v72q0 17 -13.5 30t-32.5 13zM767 596v-93l151 164l-151 161l1 -88q-6 0 -16 0.5t-40 -1.5t-59.5 -6t-70.5 -15t-76.5 -26t-73 -41.5t-65 -60.5t-47.5 -83t-25 -107h28q20 27 44 52.5t65.5 56t87.5 51t111 31.5t136 5z" />
    <glyph glyph-name="daoru1" unicode="&#xe68a;" 
d="M139 237h223v-149h-223v149v0zM362 311l223 -149l-223 -149v298zM361 833l-148 -148v-299h74v223h149v149h373v-745h-224v-74h224h74v74v820h-522zM361 833z" />
    <glyph glyph-name="daoru2" unicode="&#xe68b;" 
d="M735 521q2 2 1 5t-5 3h-137v225q0 6 -4.5 10.5t-10.5 4.5h-134q-6 0 -10.5 -4.5t-4.5 -10.5v-225h-137q-4 0 -5 -3t1 -5l213 -197q4 -4 10 -4t10 4l213 197v0zM945 270l-133 103q-14 11 -31 11h-77l128 -128h-128l-65 -93h-257l-62 93h-128l128 128h-79q-17 0 -31 -11
l-133 -103q-14 -10 -9 -27l53 -163q3 -6 9.5 -11t13.5 -5h734q8 0 14.5 5t8.5 11l53 163q5 17 -9 27z" />
    <glyph glyph-name="daoru5" unicode="&#xe68e;" 
d="M570 98h-391v572h391v120h-511v-812h511v120zM958 294v180h-301v181l-301 -271l301 -271v181h301z" />
    <glyph glyph-name="daoru" unicode="&#xe68f;" 
d="M747 500q-24 89 -93 154.5t-158 65.5q-111 0 -182.5 -71.5t-78.5 -192.5q-71 0 -121 -46.5t-50 -121.5q0 -51 23.5 -106.5t63.5 -94.5t81 -39h560q50 1 90 44.5t59 103.5t19 120q0 46 -11.5 83.5t-36.5 67t-66 37.5t-99 -4v0zM679 318l-159 -155q-4 -3 -8 -3t-8 3
l-159 155q-1 2 -0.5 4.5t3.5 2.5h103v159q0 5 3 8.5t8 3.5h100q5 0 8 -3.5t3 -8.5v-159h103q3 0 3.5 -2.5t-0.5 -4.5v0zM679 318z" />
    <glyph glyph-name="daoruchenggong" unicode="&#xe690;" 
d="M511.5 640q-105.5 0 -180.5 -75t-75 -181t75 -181t180.5 -75t180.5 75t75 181t-75 181t-180.5 75zM493 247q-29 37 -61 64t-57 36l76 48l37 -74q3 6 7.5 16.5t20 39t32.5 53t43 50.5t52 40q0 -7 -2 -24.5t-2.5 -27t1.5 -24.5t8 -28q-29 -7 -80 -65.5t-75 -103.5z" />
    <glyph glyph-name="daorushuju" unicode="&#xe691;" 
d="M711 -117h-168v1002h168v-1002zM590 -69h73v906h-73v-906zM454 -117h-168v648h168v-648v0zM333 -69h73v553h-73v-553zM194 -117h-168v478h168v-478zM74 -69h73v382h-73v-382zM968 -117h-168v879h168v-879zM847 -69h73v783h-73v-783z" />
    <glyph glyph-name="daosanjiao" unicode="&#xe693;" 
d="M862 577l-350 -351l-351 351h701z" />
    <glyph glyph-name="dengdai1" unicode="&#xe694;" 
d="M512 896q-139 0 -257 -68.5t-186.5 -186.5t-68.5 -257t68.5 -257t186.5 -186.5t257 -68.5t257 68.5t186.5 186.5t68.5 257t-68.5 257t-186.5 186.5t-257 68.5zM768 276q0 -8 -6 -14t-14 -6h-344h-2q-2 0 -4 1v0q-14 5 -14 19v344q0 8 6 14t14 6h88q8 0 14 -6t6 -14v-236
h236q8 0 14 -6t6 -14v-88z" />
    <glyph glyph-name="dengdai2" unicode="&#xe695;" 
d="M768 608v160q0 29 -17.5 46.5t-46.5 17.5h-384q-29 0 -46.5 -17.5t-17.5 -46.5v-160l166 -205q20 -19 20 -51t-20 -51l-166 -205v-96q0 -29 17.5 -46.5t46.5 -17.5h384q29 0 46.5 17.5t17.5 46.5v96l-166 205q-20 19 -20 51t20 51zM448 192l64 128l64 -128h-128zM512 448
l-192 256h384z" />
    <glyph glyph-name="dengdai3" unicode="&#xe697;" 
d="M511 756q-104 0 -192 -51t-139 -139.5t-51 -192t51 -191.5t139 -139t192 -51t192 51t139 139t51 191.5t-51 192t-139 139.5t-192 51zM772 166q-2 6 -5 10l-22 21q-7 7 -17 7t-17 -7t-7 -17t7 -17l22 -21q5 -5 12 -6q-46 -46 -106.5 -71.5t-127.5 -25.5q-136 0 -234 96
q9 1 14 7l22 21q7 7 7 17t-7 17t-17 7t-17 -7l-21 -21q-5 -5 -7 -13q-66 82 -73 187h46q10 0 17 7t7 17t-7 17t-17 7h-46q8 110 81 194l20 -20q7 -7 17 -7t17 7t7 17t-7 17l-21 20q84 73 195 81v-47q0 -9 7 -16t17 -7t17 7t7 16v47q124 -9 212 -97t97 -212h-46q-10 0 -17 -7
t-7 -17t7 -17t17 -7h46q-7 -103 -72 -184zM693.5 559.5q-7.5 6.5 -17.5 5.5t-16 -9l-118 -142q-15 8 -31 8q-30 0 -51 -21t-21 -51t21 -51t51 -21t51 21t21 51q0 16 -8 31l1 0.5l1 0.5l120 144q6 7 5 17t-8.5 16.5zM535 326h-48v48h48v-48z" />
    <glyph glyph-name="dengdai5" unicode="&#xe698;" horiz-adv-x="1177" 
d="M875 15h-10q-38 0 -38 20q0 14 9.5 22t23.5 8h10q55 0 103 41.5t75 101.5t27 120q0 96 -72.5 172t-166.5 78h-24l-7 24q-27 89 -93.5 140.5t-163.5 51.5q-123 0 -205.5 -88.5t-82.5 -215.5v0l3 -32l-30 -5q-55 -10 -96.5 -70.5t-41.5 -127.5q0 -72 56.5 -128.5
t122.5 -56.5h30q33 0 33 -25t-33 -25h-30q-93 0 -159.5 70t-66.5 170q0 83 45 149.5t115 89.5q9 147 103 243.5t237 96.5q111 0 187 -55t112 -153q115 -13 194 -99t79 -204q0 -74 -34 -146.5t-91.5 -119.5t-119.5 -47v0h-10h10v0zM442 116v1v0q2 57 43 96.5t99 39.5
q45 0 83 -27l-22 -21v0q-4 -4 -4 -10q0 -7 4.5 -11.5t11.5 -4.5h73q6 0 10.5 4.5t4.5 11.5v73q0 6 -4.5 10.5t-10.5 4.5q-11 0 -15 -9l-19 -19q-50 39 -112 39q-71 0 -123.5 -48t-58.5 -119q-1 -3 -1 -5l1 -2q-1 -2 -1 -4q0 -8 6 -14t14.5 -6t14.5 6t6 14v0zM766 114v2v0.5
v0.5v0q-1 7 -7 12t-13.5 5t-13 -5t-6.5 -12h-1q0 -1 1 -2l-0.5 -0.5t-0.5 -1t1 -2.5q0 -59 -42 -100t-100 -41q-46 0 -83 27l20 20q5 5 5 11.5t-4.5 11t-10.5 4.5h-13h-1v0h-59q-7 0 -11.5 -4.5t-4.5 -11.5v-73q0 -6 4.5 -10.5t11.5 -4.5h3v0h1q6 2 9 8l21 20
q50 -39 112 -39q75 0 128.5 53.5t53.5 128.5v1v0.5v0.5v0.5v0.5v0z" />
    </font>
</defs>
</svg>
